<svg width="1348" height="309" viewBox="0 0 1348 309" fill="none" xmlns="http://www.w3.org/2000/svg">
<rect width="1348" height="309" fill="url(#paint0_linear_237_96)" fill-opacity="0.3"/>
<path fill-rule="evenodd" clip-rule="evenodd" d="M108.97 112.409C145.243 112.395 157.429 122.25 157.463 139.544C157.501 156.779 144.693 179.888 131.886 203.15L130.35 205.942C118.073 228.277 106.271 250.544 106.308 267.683C106.329 276.318 112.432 286.186 136.574 286.175C203.289 286.153 309.228 169.009 403.099 168.975C463.274 168.953 442.956 257.417 457.275 309L0 308.997L0.00140416 125.866C42.1304 118.031 80.6374 112.419 108.97 112.409ZM933.464 141.709C1024.52 141.678 1282.22 264.778 1336.83 264.758C1342.11 264.756 1345.66 263.825 1347.99 262.469L1347.99 308.997L1191.48 308.993C1144.15 294.412 1103.71 284.592 1076.39 284.602C1048.85 284.611 1032.56 294.636 1021.27 308.993L556.804 309C591.447 261.728 615.365 184.942 669.982 184.923C745.626 184.895 782.251 274.84 861.13 274.809C894.307 274.798 897.368 257.535 897.307 229.203L897.217 187.301C897.155 160.169 900.141 141.723 933.464 141.709ZM1245.43 18.3021C1273.02 18.2921 1308.61 21.7013 1347.99 26.7511L1347.99 245.264C1322.05 203.058 1178.87 105.45 1178.75 51.6428C1178.71 31.8752 1196.91 18.3193 1245.43 18.3021ZM981.616 0.00314715C1006.42 31.3093 1060.7 67.4423 1060.75 87.3921C1060.77 96.0325 1045.69 102.191 1027.43 102.196C954.628 102.224 875.743 7.32915 769.5 7.36863C639.216 7.41669 678.939 144.269 587.909 144.303C500.149 144.334 605.833 5.00454 445.187 5.06348C348.142 5.1001 245.265 68.0288 184.579 68.0512C169.442 68.0566 154.305 65.5778 154.284 58.1602C154.255 44.8526 201.899 22.5559 245.759 0.00371936L981.616 0.00314715ZM32.6902 0C32.8424 0.511504 32.9186 1.02629 32.9184 1.54153C32.936 9.73128 20.321 19.9083 0.0154458 31.2037L0 0.00371936L32.6902 0Z" fill="black" fill-opacity="0.9"/>
<defs>
<linearGradient id="paint0_linear_237_96" x1="0" y1="154.5" x2="1348" y2="154.5" gradientUnits="userSpaceOnUse">
<stop stop-color="#17D5FF"/>
<stop offset="1" stop-color="#0E8099"/>
</linearGradient>
</defs>
</svg>
