<svg width="1195" height="579" viewBox="0 0 1195 579" fill="none" xmlns="http://www.w3.org/2000/svg">
<g opacity="0.32" filter="url(#filter0_f_1386_494)">
<path d="M592.796 1480.82C578.45 1498.65 561.079 1513.3 541.17 1524.37C520.558 1535.84 498.11 1542.94 474.459 1545.49L-626.853 1664.2C-650.51 1666.75 -673.956 1664.6 -696.55 1657.79C-718.372 1651.2 -738.482 1640.59 -756.316 1626.24C-774.151 1611.88 -788.813 1594.51 -799.899 1574.59C-811.381 1553.98 -818.502 1531.53 -821.06 1507.88L-940.465 406.64C-943.029 382.985 -940.889 359.543 -934.092 336.957C-927.516 315.141 -916.917 295.04 -902.572 277.217C-888.226 259.394 -870.855 244.744 -850.947 233.671C-830.334 222.204 -807.886 215.097 -784.235 212.554L317.078 93.8496C340.735 91.2998 364.181 93.4538 386.775 100.264C408.596 106.839 428.706 117.449 446.54 131.803C464.375 146.158 479.037 163.536 490.123 183.448C501.605 204.065 508.726 226.514 511.284 250.164L630.676 1351.4C633.24 1375.06 631.1 1398.5 624.303 1421.09C617.74 1442.9 607.141 1463 592.796 1480.82ZM-898.744 280.298C-926.257 314.479 -940.751 359.139 -935.657 406.128L-816.272 1507.36C-806.085 1601.33 -721.346 1669.53 -627.374 1659.4L473.94 1540.7C567.912 1530.57 636.075 1445.88 625.888 1351.92L506.496 250.68C496.309 156.714 411.57 88.5083 317.598 98.6371L-783.716 217.342C-830.696 222.406 -871.239 246.11 -898.752 280.292L-898.744 280.298Z" fill="url(#paint0_linear_1386_494)"/>
<path d="M578.539 1469.35C564.646 1486.61 547.822 1500.8 528.545 1511.53C508.581 1522.62 486.849 1529.51 463.937 1531.98L-619.464 1648.76C-642.376 1651.23 -665.088 1649.14 -686.964 1642.55C-708.094 1636.17 -727.57 1625.9 -744.842 1612C-762.115 1598.09 -776.315 1581.26 -787.054 1561.98C-798.166 1542.02 -805.068 1520.28 -807.551 1497.37L-925.009 414.031C-927.493 391.12 -925.409 368.419 -918.833 346.544C-912.475 325.42 -902.21 305.953 -888.316 288.692C-874.423 271.43 -857.599 257.242 -838.322 246.516C-818.358 235.418 -796.626 228.53 -773.714 226.061L309.681 109.288C332.593 106.818 355.305 108.908 377.181 115.503C398.311 121.874 417.788 132.15 435.06 146.052C452.332 159.954 466.532 176.784 477.271 196.065C488.383 216.033 495.285 237.767 497.768 260.677L615.218 1344C617.702 1366.91 615.625 1389.62 609.042 1411.49C602.684 1432.61 592.419 1452.08 578.525 1469.34L578.539 1469.35ZM-802.758 1496.85C-792.9 1587.77 -710.907 1653.77 -619.984 1643.96L463.41 1527.19C507.451 1522.44 547.006 1500.82 574.776 1466.32C602.546 1431.82 615.206 1388.57 610.437 1344.52L492.988 261.199C488.213 217.162 466.569 177.598 432.045 149.811C397.522 122.024 354.255 109.34 310.207 114.081L-773.187 230.854C-817.228 235.601 -856.783 257.219 -884.553 291.72C-912.323 326.222 -924.983 369.476 -920.214 413.521L-802.758 1496.85Z" fill="url(#paint1_linear_1386_494)"/>
<path d="M564.284 1457.88C536.635 1492.23 497.263 1513.75 453.409 1518.47L-612.073 1633.32C-655.92 1638.04 -699.007 1625.41 -733.374 1597.75C-767.748 1570.08 -789.295 1530.7 -794.042 1486.85L-909.558 421.43C-914.311 377.585 -901.703 334.512 -874.059 300.166C-846.415 265.821 -807.031 244.3 -763.183 239.574L302.292 124.732C346.14 120.005 389.227 132.638 423.594 160.299C457.967 187.966 479.514 227.346 484.262 271.197L599.769 1336.6C604.522 1380.45 591.914 1423.52 564.27 1457.86L564.284 1457.88ZM-870.232 303.247C-895.965 335.218 -909.513 376.984 -904.75 420.918L-789.249 1486.33C-784.633 1528.9 -763.717 1567.13 -730.354 1593.98C-696.99 1620.84 -655.17 1633.11 -612.6 1628.51L452.875 1513.67C495.452 1509.08 533.671 1488.19 560.508 1454.85C587.346 1421.51 599.591 1379.7 594.969 1337.13L479.463 271.728C474.847 229.153 453.931 190.927 420.568 164.073C387.204 137.219 345.384 124.95 302.814 129.545L-762.663 244.374C-806.6 249.11 -844.512 271.278 -870.239 303.241L-870.232 303.247Z" fill="url(#paint2_linear_1386_494)"/>
<path d="M550.027 1446.4C523.31 1479.59 485.256 1500.39 442.878 1504.96L-604.692 1617.87C-647.076 1622.44 -688.701 1610.23 -721.916 1583.5C-755.13 1556.76 -775.956 1518.7 -780.544 1476.33L-894.102 428.834C-898.697 386.452 -886.515 344.84 -859.798 311.646C-833.081 278.453 -795.027 257.653 -752.649 253.091L294.908 140.181C337.292 135.612 378.917 147.818 412.131 174.552C445.346 201.286 466.172 239.347 470.76 281.722L584.324 1329.21C588.919 1371.59 576.737 1413.2 550.019 1446.4L550.027 1446.4ZM-775.743 1475.81C-766.546 1560.64 -690.045 1622.21 -605.212 1613.07L442.357 1500.16C483.458 1495.73 520.353 1475.56 546.263 1443.37C572.174 1411.18 583.992 1370.82 579.53 1329.73L465.965 282.233C461.509 241.135 441.321 204.232 409.11 178.306C376.899 152.379 336.527 140.538 295.434 144.974L-752.136 257.886C-793.236 262.316 -830.132 282.479 -856.042 314.67C-881.952 346.861 -893.77 387.22 -889.309 428.31L-775.743 1475.81Z" fill="url(#paint3_linear_1386_494)"/>
<path d="M535.765 1434.92C509.975 1466.96 473.251 1487.03 432.35 1491.44L-597.301 1602.42C-638.209 1606.83 -678.385 1595.06 -710.447 1569.25C-742.509 1543.44 -762.6 1506.71 -767.035 1465.81L-878.651 436.232C-883.085 395.327 -871.331 355.163 -845.541 323.121C-819.751 291.08 -783.027 271.014 -742.118 266.604L287.532 155.624C328.44 151.214 368.616 162.992 400.678 188.798C432.74 214.604 452.831 251.336 457.266 292.241L568.889 1321.82C573.324 1362.73 561.562 1402.89 535.772 1434.93L535.765 1434.92ZM-841.721 326.196C-865.668 355.949 -878.283 394.822 -873.85 435.715L-762.234 1465.29C-757.938 1504.91 -738.471 1540.5 -707.42 1565.49C-676.368 1590.48 -637.446 1601.9 -597.821 1597.62L431.829 1486.64C472.725 1482.24 508.004 1461.6 531.952 1431.85C555.899 1402.1 568.515 1363.23 564.081 1322.33L452.458 292.753C448.162 253.131 428.695 217.546 397.644 192.553C366.592 167.56 327.67 156.147 288.045 160.418L-741.598 271.405C-782.493 275.812 -817.773 296.444 -841.721 326.196Z" fill="url(#paint4_linear_1386_494)"/>
<path d="M521.509 1423.45C496.652 1454.33 461.246 1473.68 421.821 1477.93L-589.905 1586.97C-629.337 1591.22 -668.066 1579.86 -698.968 1554.99C-729.87 1530.12 -749.24 1494.7 -753.521 1455.28L-863.2 443.631C-867.475 404.201 -856.134 365.484 -831.277 334.601C-806.42 303.719 -771.014 284.372 -731.589 280.116L280.142 171.067C319.575 166.817 358.304 178.179 389.206 203.052C420.108 227.925 439.478 263.338 443.759 302.76L553.439 1314.42C557.714 1353.85 546.374 1392.57 521.516 1423.45L521.509 1423.45ZM-827.464 337.67C-850.519 366.314 -862.661 403.741 -858.399 443.113L-748.72 1454.76C-744.585 1492.91 -725.84 1527.16 -695.941 1551.23C-666.042 1575.29 -628.568 1586.28 -590.425 1582.17L421.306 1473.12C500.055 1464.64 557.174 1393.67 548.637 1314.93L438.957 303.265C430.42 224.522 359.41 167.367 280.669 175.86L-731.068 284.917C-770.436 289.16 -804.409 309.027 -827.464 337.67Z" fill="url(#paint5_linear_1386_494)"/>
<path d="M507.253 1411.97C483.322 1441.7 449.247 1460.33 411.291 1464.42L-582.516 1571.53C-620.472 1575.62 -657.751 1564.69 -687.494 1540.75C-717.237 1516.81 -735.892 1482.72 -740.007 1444.77L-847.745 451.021C-851.859 413.068 -840.946 375.8 -817.022 346.076C-793.091 316.344 -759.016 297.719 -721.066 293.635L272.746 186.517C310.702 182.426 347.982 193.361 377.732 217.306C407.482 241.251 426.13 275.333 430.238 313.281L537.975 1307.03C542.09 1344.98 531.177 1382.25 507.253 1411.97ZM-735.206 1444.25C-726.993 1519.94 -658.73 1574.89 -583.036 1566.73L410.776 1459.61C486.483 1451.45 541.386 1383.22 533.18 1307.54L425.443 313.791C421.467 277.121 403.45 244.192 374.703 221.054C345.964 197.922 309.938 187.352 273.265 191.305L-720.54 298.429C-757.212 302.381 -790.135 320.376 -813.259 349.105C-836.376 377.826 -846.925 413.841 -842.95 450.511L-735.206 1444.25Z" fill="url(#paint6_linear_1386_494)"/>
<path d="M492.996 1400.5C469.998 1429.07 437.247 1446.97 400.767 1450.9L-575.126 1556.09C-611.606 1560.02 -647.437 1549.51 -676.027 1526.5C-704.617 1503.49 -722.538 1470.73 -726.493 1434.25L-832.295 458.42C-836.25 421.943 -825.764 386.123 -802.767 357.551C-779.769 328.978 -747.012 311.073 -710.538 307.148L265.356 201.962C301.835 198.03 337.667 208.536 366.257 231.548C394.847 254.56 412.767 287.318 416.722 323.795L522.517 1299.62C526.472 1336.1 515.986 1371.92 492.989 1400.49L492.996 1400.5ZM-799.003 360.58C-821.194 388.15 -831.31 422.709 -827.494 457.903L-721.699 1433.73C-717.884 1468.92 -700.587 1500.54 -673.007 1522.73C-645.42 1544.94 -610.85 1555.07 -575.654 1551.28L400.239 1446.09C435.435 1442.3 467.04 1425.03 489.226 1397.46C511.416 1369.89 521.532 1335.33 517.716 1300.14L411.921 324.313C404.045 251.666 338.528 198.932 265.869 206.757L-710.017 311.949C-745.213 315.742 -776.818 333.017 -799.003 360.58Z" fill="url(#paint7_linear_1386_494)"/>
<path d="M478.735 1389.02C456.664 1416.44 425.236 1433.61 390.232 1437.38L-567.742 1540.64C-602.746 1544.41 -637.135 1534.33 -664.566 1512.25C-692.003 1490.16 -709.196 1458.73 -712.991 1423.73L-816.843 465.819C-820.638 430.818 -810.574 396.439 -788.509 369.026C-766.444 341.612 -735.011 324.434 -700.007 320.661L257.967 217.406C292.971 213.633 327.36 223.717 354.791 245.795C382.222 267.874 399.421 299.314 403.216 334.315L507.069 1292.22C510.863 1327.23 500.799 1361.6 478.735 1389.02ZM-708.19 1423.21C-700.644 1492.82 -637.872 1543.34 -568.262 1535.84L389.712 1432.58C423.432 1428.95 453.713 1412.4 474.971 1385.99C496.229 1359.58 505.923 1326.46 502.268 1292.74L398.415 334.833C394.76 301.115 378.192 270.827 351.764 249.556C325.336 228.285 292.208 218.572 258.488 222.206L-699.486 325.461C-733.207 329.096 -763.488 345.643 -784.746 372.055C-806.004 398.466 -815.698 431.584 -812.043 465.302L-708.19 1423.21Z" fill="url(#paint8_linear_1386_494)"/>
<path d="M464.478 1377.54C443.34 1403.81 413.237 1420.26 379.709 1423.88L-560.353 1525.19C-593.881 1528.81 -626.821 1519.15 -653.099 1498C-679.377 1476.85 -695.849 1446.73 -699.484 1413.21L-801.394 473.217C-805.028 439.692 -795.392 406.762 -774.254 380.5C-753.116 354.238 -723.006 337.787 -689.479 334.173L250.577 232.849C284.104 229.236 317.045 238.891 343.323 260.042C369.601 281.193 386.079 311.302 389.708 344.834L491.618 1284.83C495.252 1318.35 485.609 1351.28 464.471 1377.54L464.478 1377.54ZM-770.491 383.529C-790.822 408.788 -800.089 440.458 -796.593 472.7L-694.683 1412.69C-691.188 1444.93 -675.347 1473.9 -650.072 1494.24C-624.797 1514.58 -593.123 1523.88 -560.873 1520.39L379.182 1419.07C411.426 1415.59 440.384 1399.77 460.715 1374.51C481.046 1349.26 490.319 1317.59 486.817 1285.34L384.907 345.352C377.69 278.789 317.665 230.475 251.097 237.65L-688.958 338.973C-721.202 342.449 -750.16 358.269 -770.491 383.529Z" fill="url(#paint9_linear_1386_494)"/>
<path d="M450.222 1366.07C430.017 1391.17 401.232 1406.91 369.18 1410.36L-552.963 1509.75C-585.014 1513.2 -616.5 1503.97 -641.626 1483.75C-666.744 1463.53 -682.501 1434.74 -685.976 1402.69L-785.943 480.615C-789.418 448.566 -780.202 417.09 -759.991 391.98C-739.785 366.877 -711.001 351.14 -678.949 347.685L243.2 248.291C275.251 244.837 306.737 254.071 331.863 274.295C356.981 294.512 372.738 323.303 376.213 355.352L476.182 1277.44C479.656 1309.49 470.44 1340.96 450.229 1366.07L450.222 1366.07ZM-681.175 1402.17C-674.289 1465.69 -617.009 1511.8 -553.49 1504.94L368.659 1405.55C399.426 1402.23 427.059 1387.13 446.457 1363.03C465.856 1338.93 474.702 1308.71 471.372 1277.94L371.404 355.851C364.517 292.33 307.237 246.226 243.719 253.079L-678.429 352.485C-741.954 359.332 -788.029 416.577 -781.137 480.091L-681.175 1402.17Z" fill="url(#paint10_linear_1386_494)"/>
<path d="M435.965 1354.59C416.687 1378.55 389.232 1393.55 358.657 1396.84L-545.574 1494.31C-576.149 1497.6 -606.186 1488.8 -630.152 1469.51C-654.118 1450.22 -669.14 1422.75 -672.454 1392.18L-770.488 488.006C-773.803 457.433 -765.008 427.399 -745.73 403.447C-726.451 379.496 -698.996 364.493 -668.421 361.198L235.81 263.735C266.385 260.44 296.422 269.246 320.388 288.536C344.354 307.826 359.376 335.287 362.69 365.861L460.717 1270.03C464.031 1300.6 455.242 1330.63 435.964 1354.58L435.965 1354.59ZM-667.661 1391.66C-661.105 1452.12 -606.564 1496.02 -546.094 1489.51L358.136 1392.04C388.365 1388.79 414.461 1373.52 432.173 1351.53C449.883 1329.53 459.202 1300.79 455.923 1270.55L357.897 366.384C354.721 337.094 340.324 310.78 317.368 292.303C294.412 273.826 265.629 265.384 236.337 268.541L-667.893 366.004C-728.363 372.521 -772.23 427.021 -765.68 487.495L-667.661 1391.66Z" fill="url(#paint11_linear_1386_494)"/>
<path d="M421.702 1343.11C403.356 1365.91 377.219 1380.19 348.119 1383.33L-538.191 1478.86C-567.291 1481.99 -595.886 1473.61 -618.692 1455.25C-641.499 1436.9 -655.8 1410.75 -658.955 1381.66L-755.038 495.405C-758.193 466.308 -749.825 437.721 -731.48 414.929C-713.135 392.136 -686.997 377.853 -657.898 374.717L228.413 279.186C257.512 276.05 286.107 284.434 308.914 302.79C331.721 321.147 346.022 347.29 349.176 376.387L445.26 1262.64C448.415 1291.74 440.047 1320.32 421.702 1343.11ZM-654.154 1381.14C-647.928 1438.56 -596.14 1480.25 -538.705 1474.06L347.606 1378.53C375.422 1375.53 400.407 1361.88 417.946 1340.09C435.484 1318.3 443.482 1290.98 440.466 1263.16L344.383 376.91C338.157 319.486 286.369 277.802 228.934 283.986L-657.377 379.517C-685.193 382.515 -710.178 396.168 -727.717 417.958C-745.255 439.748 -753.253 467.074 -750.238 494.887L-654.154 1381.14Z" fill="url(#paint12_linear_1386_494)"/>
<path d="M407.447 1331.64C390.029 1353.28 365.222 1366.84 337.592 1369.81L-530.8 1463.41C-558.423 1466.39 -585.569 1458.44 -607.224 1441.01C-628.878 1423.58 -642.457 1398.76 -645.446 1371.14L-739.587 502.803C-742.581 475.182 -734.641 448.044 -717.223 426.403C-699.804 404.763 -674.997 391.201 -647.367 388.229L221.025 294.63C248.648 291.652 275.794 299.608 297.448 317.037C319.102 334.467 332.681 359.278 335.67 386.907L429.811 1255.24C432.806 1282.86 424.865 1310 407.447 1331.64ZM-640.645 1370.62C-637.789 1396.96 -624.848 1420.62 -604.197 1437.24C-583.545 1453.87 -557.666 1461.46 -531.321 1458.61L337.071 1365.01C363.416 1362.17 387.072 1349.25 403.684 1328.61C420.295 1307.97 427.873 1282.1 425.01 1255.76L330.869 387.424C328.007 361.081 315.072 337.42 294.421 320.798C273.77 304.176 247.89 296.584 221.545 299.43L-646.847 393.03C-673.192 395.876 -696.848 408.794 -713.46 429.432C-730.071 450.071 -737.649 475.942 -734.786 502.286L-640.645 1370.62Z" fill="url(#paint13_linear_1386_494)"/>
<path d="M393.155 1320.14C377.35 1339.77 354.056 1353.39 327.069 1356.31L-523.404 1447.98C-549.557 1450.8 -575.248 1443.27 -595.75 1426.77C-616.245 1410.27 -629.095 1386.78 -631.931 1360.62L-724.137 510.202C-726.972 484.057 -719.459 458.368 -702.967 437.879C-686.476 417.39 -662.999 404.562 -636.839 401.742L213.634 310.074C267.622 304.255 316.309 343.443 322.161 397.427L414.36 1247.84C417.286 1274.83 408.958 1300.49 393.148 1320.13L393.155 1320.14ZM-699.204 440.908C-714.883 460.387 -722.033 484.81 -719.336 509.685L-627.138 1360.1C-624.441 1384.97 -612.222 1407.31 -592.73 1423C-573.238 1438.69 -548.808 1445.85 -523.932 1443.17L326.541 1351.5C377.885 1345.97 415.126 1299.7 409.559 1248.36L317.361 397.944C311.795 346.604 265.498 309.341 214.155 314.875L-636.318 406.543C-661.195 409.224 -683.525 421.428 -699.204 440.908Z" fill="url(#paint14_linear_1386_494)"/>
<path d="M378.899 1308.66C363.981 1327.2 342.013 1340.04 316.533 1342.79L-516.021 1432.53C-566.967 1438.02 -612.9 1401.05 -618.423 1350.1L-708.681 517.593C-714.204 466.65 -677.255 420.746 -626.309 415.254L206.245 325.518C230.928 322.857 255.165 329.971 274.507 345.539C293.85 361.108 305.973 383.272 308.654 407.946L398.91 1240.44C401.671 1265.91 393.817 1290.13 378.899 1308.66ZM-613.623 1349.59C-608.386 1397.88 -564.836 1432.94 -516.541 1427.73L316.013 1337.99C364.307 1332.78 399.346 1289.26 394.104 1240.97L303.848 408.471C298.611 360.172 255.061 325.119 206.766 330.331L-625.788 420.068C-674.089 425.274 -709.121 468.797 -703.879 517.088L-613.623 1349.59Z" fill="url(#paint15_linear_1386_494)"/>
<path d="M364.672 1297.21C350.046 1315.38 329.204 1326.77 306.009 1329.27L-508.638 1417.08C-556.542 1422.24 -599.73 1387.48 -604.923 1339.58L-693.231 524.991C-695.747 501.786 -689.074 479.005 -674.448 460.833C-659.822 442.662 -638.988 431.268 -615.786 428.774L198.862 340.967C246.766 335.804 289.953 370.565 295.146 418.466L383.461 1233.06C385.977 1256.26 379.305 1279.05 364.679 1297.22L364.672 1297.21ZM-600.115 1339.07C-595.21 1384.31 -554.398 1417.16 -509.152 1412.28L305.496 1324.48C350.743 1319.6 383.571 1278.81 378.666 1233.57L290.351 418.976C285.446 373.732 244.635 340.884 199.388 345.761L-615.26 433.567C-660.507 438.444 -693.329 479.223 -688.43 524.474L-600.115 1339.07Z" fill="url(#paint16_linear_1386_494)"/>
<path d="M350.416 1285.74C336.717 1302.76 317.212 1313.42 295.48 1315.76L-501.248 1401.63C-522.98 1403.98 -544.319 1397.72 -561.349 1384.01C-578.379 1370.3 -589.059 1350.79 -591.408 1329.06L-677.78 532.39C-682.642 487.544 -650.106 447.12 -605.257 442.286L191.472 356.411C213.203 354.069 234.542 360.326 251.573 374.033C268.603 387.741 279.276 407.25 281.632 428.98L368.004 1225.65C370.36 1247.38 364.115 1268.72 350.416 1285.74ZM-656.429 475.337C-669.321 491.354 -675.196 511.426 -672.98 531.872L-586.608 1328.55C-584.391 1348.99 -574.342 1367.36 -558.322 1380.25C-542.295 1393.15 -522.217 1399.04 -501.769 1396.83L294.96 1310.96C337.165 1306.41 367.779 1268.37 363.203 1226.17L276.831 429.497C272.256 387.295 234.197 356.662 191.992 361.211L-604.736 447.086C-625.184 449.29 -643.543 459.326 -656.429 475.337Z" fill="url(#paint17_linear_1386_494)"/>
<path d="M336.13 1274.24C323.89 1289.45 305.86 1299.99 284.95 1302.25L-493.86 1386.19C-514.115 1388.37 -534.012 1382.54 -549.883 1369.76C-565.753 1356.99 -575.706 1338.8 -577.901 1318.55L-662.331 539.788C-666.863 497.984 -636.535 460.305 -594.729 455.799L184.081 371.855C204.336 369.672 224.233 375.506 240.104 388.281C255.975 401.055 265.927 419.245 268.123 439.499L352.553 1218.26C354.819 1239.16 348.37 1259.03 336.13 1274.24ZM-642.174 486.811C-654.133 501.67 -659.587 520.3 -657.53 539.271L-573.101 1318.03C-571.044 1337 -561.723 1354.04 -546.856 1366C-531.988 1377.97 -513.351 1383.43 -494.38 1381.39L284.43 1297.45C303.401 1295.4 320.436 1286.09 332.396 1271.23C344.355 1256.37 349.809 1237.74 347.752 1218.77L263.322 440.017C261.266 421.046 251.945 404.008 237.077 392.041C222.21 380.074 203.573 374.61 184.602 376.655L-594.208 460.599C-613.18 462.644 -630.215 471.953 -642.174 486.811Z" fill="url(#paint18_linear_1386_494)"/>
<path d="M321.874 1262.77C310.527 1276.86 293.803 1286.64 274.421 1288.73L-486.47 1370.75C-525.234 1374.92 -560.191 1346.79 -564.394 1308.03L-646.881 547.187C-651.083 508.424 -622.964 473.489 -584.2 469.311L176.691 387.299C215.456 383.121 250.413 411.257 254.615 450.019L337.102 1210.86C339.203 1230.24 333.227 1248.66 321.874 1262.77ZM-627.89 498.309C-638.464 511.447 -644.038 528.61 -642.08 546.669L-559.593 1307.51C-557.697 1325 -549.104 1340.72 -535.388 1351.76C-521.673 1362.8 -504.486 1367.83 -486.99 1365.95L273.9 1283.93C291.396 1282.05 307.107 1273.47 318.14 1259.76C329.172 1246.05 334.198 1228.87 332.301 1211.38L249.814 450.537C247.918 433.042 239.325 417.328 225.61 406.289C211.894 395.249 194.707 390.213 177.211 392.099L-583.679 474.111C-601.74 476.058 -617.315 485.171 -627.89 498.309Z" fill="url(#paint19_linear_1386_494)"/>
<path d="M307.619 1251.29C297.159 1264.29 281.753 1273.29 263.893 1275.22L-479.079 1355.3C-496.382 1357.17 -513.376 1352.18 -526.942 1341.26C-540.501 1330.35 -549.01 1314.81 -550.885 1297.51L-631.424 554.577C-635.297 518.857 -609.387 486.666 -573.67 482.823L169.302 402.742C205.025 398.892 237.228 424.812 241.101 460.533L321.646 1203.45C323.581 1221.31 318.072 1238.29 307.612 1251.28L307.619 1251.29ZM-613.633 509.783C-623.315 521.812 -628.416 537.528 -626.629 554.067L-546.078 1296.99C-544.341 1313.01 -536.463 1327.4 -523.908 1337.51C-511.352 1347.61 -495.619 1352.23 -479.593 1350.51L263.379 1270.43C296.458 1266.86 320.438 1237.05 316.854 1203.99L236.309 461.069C232.717 428 202.896 403.997 169.831 407.561L-573.141 487.642C-589.674 489.424 -603.937 497.766 -613.625 509.802L-613.633 509.783Z" fill="url(#paint20_linear_1386_494)"/>
<path d="M293.385 1239.83C283.405 1252.23 269.196 1260 253.369 1261.7L-471.683 1339.85C-504.351 1343.37 -533.816 1319.66 -537.364 1286.99L-615.974 561.976C-617.689 546.15 -613.141 530.61 -603.161 518.212C-593.182 505.813 -578.973 498.049 -563.146 496.343L161.907 418.193C177.733 416.487 193.285 421.05 205.685 431.03C218.091 441.016 225.865 455.228 227.581 471.053L306.183 1196.06C307.898 1211.88 303.344 1227.43 293.37 1239.82L293.385 1239.83ZM-532.57 1286.48C-529.315 1316.5 -502.233 1338.29 -472.209 1335.06L252.843 1256.91C267.386 1255.34 280.449 1248.2 289.616 1236.81C298.789 1225.42 302.967 1211.14 301.391 1196.59L222.789 471.59C221.212 457.047 214.062 443.982 202.666 434.81C191.263 425.631 176.979 421.444 162.436 423.012L-562.617 501.162C-577.16 502.729 -590.223 509.87 -599.39 521.259C-608.557 532.648 -612.741 546.935 -611.164 561.477L-532.57 1286.48Z" fill="url(#paint21_linear_1386_494)"/>
</g>
<defs>
<filter id="filter0_f_1386_494" x="-950.514" y="83.812" width="1591.24" height="1590.43" filterUnits="userSpaceOnUse" color-interpolation-filters="sRGB">
<feFlood flood-opacity="0" result="BackgroundImageFix"/>
<feBlend mode="normal" in="SourceGraphic" in2="BackgroundImageFix" result="shape"/>
<feGaussianBlur stdDeviation="4.5" result="effect1_foregroundBlur_1386_494"/>
</filter>
<linearGradient id="paint0_linear_1386_494" x1="-756.309" y1="1626.24" x2="446.553" y2="131.802" gradientUnits="userSpaceOnUse">
<stop stop-color="#1868AB"/>
<stop offset="0.2" stop-color="#2274C7"/>
<stop offset="0.32" stop-color="#2275C8" stop-opacity="0.99"/>
<stop offset="0.37" stop-color="#227BCF" stop-opacity="0.93"/>
<stop offset="0.4" stop-color="#2285DA" stop-opacity="0.84"/>
<stop offset="0.42" stop-color="#2294EB" stop-opacity="0.7"/>
<stop offset="0.44" stop-color="#23A0F8" stop-opacity="0.6"/>
<stop offset="0.7" stop-color="#23A0F8"/>
<stop offset="0.87" stop-color="#34D6FC"/>
<stop offset="1" stop-color="#34D6FC" stop-opacity="0.5"/>
</linearGradient>
<linearGradient id="paint1_linear_1386_494" x1="-744.842" y1="1612" x2="435.08" y2="146.056" gradientUnits="userSpaceOnUse">
<stop stop-color="#1868AB"/>
<stop offset="0.2" stop-color="#2274C7"/>
<stop offset="0.32" stop-color="#2275C8" stop-opacity="0.99"/>
<stop offset="0.37" stop-color="#227BCF" stop-opacity="0.93"/>
<stop offset="0.4" stop-color="#2285DA" stop-opacity="0.84"/>
<stop offset="0.42" stop-color="#2294EB" stop-opacity="0.7"/>
<stop offset="0.44" stop-color="#23A0F8" stop-opacity="0.6"/>
<stop offset="0.7" stop-color="#23A0F8"/>
<stop offset="0.87" stop-color="#34D6FC"/>
<stop offset="1" stop-color="#34D6FC" stop-opacity="0.5"/>
</linearGradient>
<linearGradient id="paint2_linear_1386_494" x1="-733.368" y1="1597.74" x2="423.614" y2="160.304" gradientUnits="userSpaceOnUse">
<stop stop-color="#1868AB"/>
<stop offset="0.2" stop-color="#2274C7"/>
<stop offset="0.32" stop-color="#2275C8" stop-opacity="0.99"/>
<stop offset="0.37" stop-color="#227BCF" stop-opacity="0.93"/>
<stop offset="0.4" stop-color="#2285DA" stop-opacity="0.84"/>
<stop offset="0.42" stop-color="#2294EB" stop-opacity="0.7"/>
<stop offset="0.44" stop-color="#23A0F8" stop-opacity="0.6"/>
<stop offset="0.7" stop-color="#23A0F8"/>
<stop offset="0.87" stop-color="#34D6FC"/>
<stop offset="1" stop-color="#34D6FC" stop-opacity="0.5"/>
</linearGradient>
<linearGradient id="paint3_linear_1386_494" x1="-721.903" y1="1583.5" x2="412.144" y2="174.551" gradientUnits="userSpaceOnUse">
<stop stop-color="#1868AB"/>
<stop offset="0.2" stop-color="#2274C7"/>
<stop offset="0.32" stop-color="#2275C8" stop-opacity="0.99"/>
<stop offset="0.37" stop-color="#227BCF" stop-opacity="0.93"/>
<stop offset="0.4" stop-color="#2285DA" stop-opacity="0.84"/>
<stop offset="0.42" stop-color="#2294EB" stop-opacity="0.7"/>
<stop offset="0.44" stop-color="#23A0F8" stop-opacity="0.6"/>
<stop offset="0.7" stop-color="#23A0F8"/>
<stop offset="0.87" stop-color="#34D6FC"/>
<stop offset="1" stop-color="#34D6FC" stop-opacity="0.5"/>
</linearGradient>
<linearGradient id="paint4_linear_1386_494" x1="-710.434" y1="1569.25" x2="400.678" y2="188.798" gradientUnits="userSpaceOnUse">
<stop stop-color="#1868AB"/>
<stop offset="0.2" stop-color="#2274C7"/>
<stop offset="0.32" stop-color="#2275C8" stop-opacity="0.99"/>
<stop offset="0.37" stop-color="#227BCF" stop-opacity="0.93"/>
<stop offset="0.4" stop-color="#2285DA" stop-opacity="0.84"/>
<stop offset="0.42" stop-color="#2294EB" stop-opacity="0.7"/>
<stop offset="0.44" stop-color="#23A0F8" stop-opacity="0.6"/>
<stop offset="0.7" stop-color="#23A0F8"/>
<stop offset="0.87" stop-color="#34D6FC"/>
<stop offset="1" stop-color="#34D6FC" stop-opacity="0.5"/>
</linearGradient>
<linearGradient id="paint5_linear_1386_494" x1="-698.961" y1="1554.99" x2="389.206" y2="203.052" gradientUnits="userSpaceOnUse">
<stop stop-color="#1868AB"/>
<stop offset="0.2" stop-color="#2274C7"/>
<stop offset="0.32" stop-color="#2275C8" stop-opacity="0.99"/>
<stop offset="0.37" stop-color="#227BCF" stop-opacity="0.93"/>
<stop offset="0.4" stop-color="#2285DA" stop-opacity="0.84"/>
<stop offset="0.42" stop-color="#2294EB" stop-opacity="0.7"/>
<stop offset="0.44" stop-color="#23A0F8" stop-opacity="0.6"/>
<stop offset="0.7" stop-color="#23A0F8"/>
<stop offset="0.87" stop-color="#34D6FC"/>
<stop offset="1" stop-color="#34D6FC" stop-opacity="0.5"/>
</linearGradient>
<linearGradient id="paint6_linear_1386_494" x1="-687.494" y1="1540.75" x2="377.738" y2="217.299" gradientUnits="userSpaceOnUse">
<stop stop-color="#1868AB"/>
<stop offset="0.2" stop-color="#2274C7"/>
<stop offset="0.32" stop-color="#2275C8" stop-opacity="0.99"/>
<stop offset="0.37" stop-color="#227BCF" stop-opacity="0.93"/>
<stop offset="0.4" stop-color="#2285DA" stop-opacity="0.84"/>
<stop offset="0.42" stop-color="#2294EB" stop-opacity="0.7"/>
<stop offset="0.44" stop-color="#23A0F8" stop-opacity="0.6"/>
<stop offset="0.7" stop-color="#23A0F8"/>
<stop offset="0.87" stop-color="#34D6FC"/>
<stop offset="1" stop-color="#34D6FC" stop-opacity="0.5"/>
</linearGradient>
<linearGradient id="paint7_linear_1386_494" x1="-676.027" y1="1526.5" x2="366.269" y2="231.546" gradientUnits="userSpaceOnUse">
<stop stop-color="#1868AB"/>
<stop offset="0.2" stop-color="#2274C7"/>
<stop offset="0.32" stop-color="#2275C8" stop-opacity="0.99"/>
<stop offset="0.37" stop-color="#227BCF" stop-opacity="0.93"/>
<stop offset="0.4" stop-color="#2285DA" stop-opacity="0.84"/>
<stop offset="0.42" stop-color="#2294EB" stop-opacity="0.7"/>
<stop offset="0.44" stop-color="#23A0F8" stop-opacity="0.6"/>
<stop offset="0.7" stop-color="#23A0F8"/>
<stop offset="0.87" stop-color="#34D6FC"/>
<stop offset="1" stop-color="#34D6FC" stop-opacity="0.5"/>
</linearGradient>
<linearGradient id="paint8_linear_1386_494" x1="-664.559" y1="1512.25" x2="354.804" y2="245.794" gradientUnits="userSpaceOnUse">
<stop stop-color="#1868AB"/>
<stop offset="0.2" stop-color="#2274C7"/>
<stop offset="0.32" stop-color="#2275C8" stop-opacity="0.99"/>
<stop offset="0.37" stop-color="#227BCF" stop-opacity="0.93"/>
<stop offset="0.4" stop-color="#2285DA" stop-opacity="0.84"/>
<stop offset="0.42" stop-color="#2294EB" stop-opacity="0.7"/>
<stop offset="0.44" stop-color="#23A0F8" stop-opacity="0.6"/>
<stop offset="0.7" stop-color="#23A0F8"/>
<stop offset="0.87" stop-color="#34D6FC"/>
<stop offset="1" stop-color="#34D6FC" stop-opacity="0.5"/>
</linearGradient>
<linearGradient id="paint9_linear_1386_494" x1="-653.092" y1="1498.01" x2="343.33" y2="260.048" gradientUnits="userSpaceOnUse">
<stop stop-color="#1868AB"/>
<stop offset="0.2" stop-color="#2274C7"/>
<stop offset="0.32" stop-color="#2275C8" stop-opacity="0.99"/>
<stop offset="0.37" stop-color="#227BCF" stop-opacity="0.93"/>
<stop offset="0.4" stop-color="#2285DA" stop-opacity="0.84"/>
<stop offset="0.42" stop-color="#2294EB" stop-opacity="0.7"/>
<stop offset="0.44" stop-color="#23A0F8" stop-opacity="0.6"/>
<stop offset="0.7" stop-color="#23A0F8"/>
<stop offset="0.87" stop-color="#34D6FC"/>
<stop offset="1" stop-color="#34D6FC" stop-opacity="0.5"/>
</linearGradient>
<linearGradient id="paint10_linear_1386_494" x1="-641.619" y1="1483.75" x2="331.863" y2="274.295" gradientUnits="userSpaceOnUse">
<stop stop-color="#1868AB"/>
<stop offset="0.2" stop-color="#2274C7"/>
<stop offset="0.32" stop-color="#2275C8" stop-opacity="0.99"/>
<stop offset="0.37" stop-color="#227BCF" stop-opacity="0.93"/>
<stop offset="0.4" stop-color="#2285DA" stop-opacity="0.84"/>
<stop offset="0.42" stop-color="#2294EB" stop-opacity="0.7"/>
<stop offset="0.44" stop-color="#23A0F8" stop-opacity="0.6"/>
<stop offset="0.7" stop-color="#23A0F8"/>
<stop offset="0.87" stop-color="#34D6FC"/>
<stop offset="1" stop-color="#34D6FC" stop-opacity="0.5"/>
</linearGradient>
<linearGradient id="paint11_linear_1386_494" x1="-630.152" y1="1469.51" x2="320.395" y2="288.542" gradientUnits="userSpaceOnUse">
<stop stop-color="#1868AB"/>
<stop offset="0.2" stop-color="#2274C7"/>
<stop offset="0.32" stop-color="#2275C8" stop-opacity="0.99"/>
<stop offset="0.37" stop-color="#227BCF" stop-opacity="0.93"/>
<stop offset="0.4" stop-color="#2285DA" stop-opacity="0.84"/>
<stop offset="0.42" stop-color="#2294EB" stop-opacity="0.7"/>
<stop offset="0.44" stop-color="#23A0F8" stop-opacity="0.6"/>
<stop offset="0.7" stop-color="#23A0F8"/>
<stop offset="0.87" stop-color="#34D6FC"/>
<stop offset="1" stop-color="#34D6FC" stop-opacity="0.5"/>
</linearGradient>
<linearGradient id="paint12_linear_1386_494" x1="-618.685" y1="1455.26" x2="308.927" y2="302.789" gradientUnits="userSpaceOnUse">
<stop stop-color="#1868AB"/>
<stop offset="0.2" stop-color="#2274C7"/>
<stop offset="0.32" stop-color="#2275C8" stop-opacity="0.99"/>
<stop offset="0.37" stop-color="#227BCF" stop-opacity="0.93"/>
<stop offset="0.4" stop-color="#2285DA" stop-opacity="0.84"/>
<stop offset="0.42" stop-color="#2294EB" stop-opacity="0.7"/>
<stop offset="0.44" stop-color="#23A0F8" stop-opacity="0.6"/>
<stop offset="0.7" stop-color="#23A0F8"/>
<stop offset="0.87" stop-color="#34D6FC"/>
<stop offset="1" stop-color="#34D6FC" stop-opacity="0.5"/>
</linearGradient>
<linearGradient id="paint13_linear_1386_494" x1="-607.217" y1="1441.01" x2="297.455" y2="317.043" gradientUnits="userSpaceOnUse">
<stop stop-color="#1868AB"/>
<stop offset="0.2" stop-color="#2274C7"/>
<stop offset="0.32" stop-color="#2275C8" stop-opacity="0.99"/>
<stop offset="0.37" stop-color="#227BCF" stop-opacity="0.93"/>
<stop offset="0.4" stop-color="#2285DA" stop-opacity="0.84"/>
<stop offset="0.42" stop-color="#2294EB" stop-opacity="0.7"/>
<stop offset="0.44" stop-color="#23A0F8" stop-opacity="0.6"/>
<stop offset="0.7" stop-color="#23A0F8"/>
<stop offset="0.87" stop-color="#34D6FC"/>
<stop offset="1" stop-color="#34D6FC" stop-opacity="0.5"/>
</linearGradient>
<linearGradient id="paint14_linear_1386_494" x1="-595.766" y1="1426.74" x2="285.937" y2="331.309" gradientUnits="userSpaceOnUse">
<stop stop-color="#1868AB"/>
<stop offset="0.2" stop-color="#2274C7"/>
<stop offset="0.32" stop-color="#2275C8" stop-opacity="0.99"/>
<stop offset="0.37" stop-color="#227BCF" stop-opacity="0.93"/>
<stop offset="0.4" stop-color="#2285DA" stop-opacity="0.84"/>
<stop offset="0.42" stop-color="#2294EB" stop-opacity="0.7"/>
<stop offset="0.44" stop-color="#23A0F8" stop-opacity="0.6"/>
<stop offset="0.7" stop-color="#23A0F8"/>
<stop offset="0.87" stop-color="#34D6FC"/>
<stop offset="1" stop-color="#34D6FC" stop-opacity="0.5"/>
</linearGradient>
<linearGradient id="paint15_linear_1386_494" x1="-584.248" y1="1412.48" x2="274.52" y2="345.538" gradientUnits="userSpaceOnUse">
<stop stop-color="#1868AB"/>
<stop offset="0.2" stop-color="#2274C7"/>
<stop offset="0.32" stop-color="#2275C8" stop-opacity="0.99"/>
<stop offset="0.37" stop-color="#227BCF" stop-opacity="0.93"/>
<stop offset="0.4" stop-color="#2285DA" stop-opacity="0.84"/>
<stop offset="0.42" stop-color="#2294EB" stop-opacity="0.7"/>
<stop offset="0.44" stop-color="#23A0F8" stop-opacity="0.6"/>
<stop offset="0.7" stop-color="#23A0F8"/>
<stop offset="0.87" stop-color="#34D6FC"/>
<stop offset="1" stop-color="#34D6FC" stop-opacity="0.5"/>
</linearGradient>
<linearGradient id="paint16_linear_1386_494" x1="-572.781" y1="1398.23" x2="263.024" y2="359.82" gradientUnits="userSpaceOnUse">
<stop stop-color="#1868AB"/>
<stop offset="0.2" stop-color="#2274C7"/>
<stop offset="0.32" stop-color="#2275C8" stop-opacity="0.99"/>
<stop offset="0.37" stop-color="#227BCF" stop-opacity="0.93"/>
<stop offset="0.4" stop-color="#2285DA" stop-opacity="0.84"/>
<stop offset="0.42" stop-color="#2294EB" stop-opacity="0.7"/>
<stop offset="0.44" stop-color="#23A0F8" stop-opacity="0.6"/>
<stop offset="0.7" stop-color="#23A0F8"/>
<stop offset="0.87" stop-color="#34D6FC"/>
<stop offset="1" stop-color="#34D6FC" stop-opacity="0.5"/>
</linearGradient>
<linearGradient id="paint17_linear_1386_494" x1="-561.328" y1="1384.03" x2="251.594" y2="374.05" gradientUnits="userSpaceOnUse">
<stop stop-color="#1868AB"/>
<stop offset="0.2" stop-color="#2274C7"/>
<stop offset="0.32" stop-color="#2275C8" stop-opacity="0.99"/>
<stop offset="0.37" stop-color="#227BCF" stop-opacity="0.93"/>
<stop offset="0.4" stop-color="#2285DA" stop-opacity="0.84"/>
<stop offset="0.42" stop-color="#2294EB" stop-opacity="0.7"/>
<stop offset="0.44" stop-color="#23A0F8" stop-opacity="0.6"/>
<stop offset="0.7" stop-color="#23A0F8"/>
<stop offset="0.87" stop-color="#34D6FC"/>
<stop offset="1" stop-color="#34D6FC" stop-opacity="0.5"/>
</linearGradient>
<linearGradient id="paint18_linear_1386_494" x1="-549.87" y1="1369.76" x2="240.111" y2="388.286" gradientUnits="userSpaceOnUse">
<stop stop-color="#1868AB"/>
<stop offset="0.2" stop-color="#2274C7"/>
<stop offset="0.32" stop-color="#2275C8" stop-opacity="0.99"/>
<stop offset="0.37" stop-color="#227BCF" stop-opacity="0.93"/>
<stop offset="0.4" stop-color="#2285DA" stop-opacity="0.84"/>
<stop offset="0.42" stop-color="#2294EB" stop-opacity="0.7"/>
<stop offset="0.44" stop-color="#23A0F8" stop-opacity="0.6"/>
<stop offset="0.7" stop-color="#23A0F8"/>
<stop offset="0.87" stop-color="#34D6FC"/>
<stop offset="1" stop-color="#34D6FC" stop-opacity="0.5"/>
</linearGradient>
<linearGradient id="paint19_linear_1386_494" x1="-538.38" y1="1355.49" x2="228.621" y2="402.562" gradientUnits="userSpaceOnUse">
<stop stop-color="#1868AB"/>
<stop offset="0.2" stop-color="#2274C7"/>
<stop offset="0.32" stop-color="#2275C8" stop-opacity="0.99"/>
<stop offset="0.37" stop-color="#227BCF" stop-opacity="0.93"/>
<stop offset="0.4" stop-color="#2285DA" stop-opacity="0.84"/>
<stop offset="0.42" stop-color="#2294EB" stop-opacity="0.7"/>
<stop offset="0.44" stop-color="#23A0F8" stop-opacity="0.6"/>
<stop offset="0.7" stop-color="#23A0F8"/>
<stop offset="0.87" stop-color="#34D6FC"/>
<stop offset="1" stop-color="#34D6FC" stop-opacity="0.5"/>
</linearGradient>
<linearGradient id="paint20_linear_1386_494" x1="-526.935" y1="1341.27" x2="217.154" y2="416.809" gradientUnits="userSpaceOnUse">
<stop stop-color="#1868AB"/>
<stop offset="0.2" stop-color="#2274C7"/>
<stop offset="0.32" stop-color="#2275C8" stop-opacity="0.99"/>
<stop offset="0.37" stop-color="#227BCF" stop-opacity="0.93"/>
<stop offset="0.4" stop-color="#2285DA" stop-opacity="0.84"/>
<stop offset="0.42" stop-color="#2294EB" stop-opacity="0.7"/>
<stop offset="0.44" stop-color="#23A0F8" stop-opacity="0.6"/>
<stop offset="0.7" stop-color="#23A0F8"/>
<stop offset="0.87" stop-color="#34D6FC"/>
<stop offset="1" stop-color="#34D6FC" stop-opacity="0.5"/>
</linearGradient>
<linearGradient id="paint21_linear_1386_494" x1="-515.444" y1="1326.99" x2="205.705" y2="431.035" gradientUnits="userSpaceOnUse">
<stop stop-color="#1868AB"/>
<stop offset="0.2" stop-color="#2274C7"/>
<stop offset="0.32" stop-color="#2275C8" stop-opacity="0.99"/>
<stop offset="0.37" stop-color="#227BCF" stop-opacity="0.93"/>
<stop offset="0.4" stop-color="#2285DA" stop-opacity="0.84"/>
<stop offset="0.42" stop-color="#2294EB" stop-opacity="0.7"/>
<stop offset="0.44" stop-color="#23A0F8" stop-opacity="0.6"/>
<stop offset="0.7" stop-color="#23A0F8"/>
<stop offset="0.87" stop-color="#34D6FC"/>
<stop offset="1" stop-color="#34D6FC" stop-opacity="0.5"/>
</linearGradient>
</defs>
</svg>
