<svg width="1262" height="579" viewBox="0 0 1262 579" fill="none" xmlns="http://www.w3.org/2000/svg">
<path d="M1760.79 -105.016C1780.88 -94.0684 1798.38 -79.5786 1812.82 -61.9565C1827.77 -43.7117 1838.76 -22.8848 1845.46 -0.0628409L2158.11 1062.59C2164.83 1085.42 2166.88 1108.87 2164.19 1132.32C2161.59 1154.96 2154.72 1176.64 2143.77 1196.74C2132.81 1216.84 2118.32 1234.36 2100.7 1248.81C2082.45 1263.78 2061.62 1274.78 2038.81 1281.5L976.347 1594.81C953.525 1601.54 930.076 1603.6 906.641 1600.93C884.004 1598.34 862.339 1591.48 842.249 1580.53C822.159 1569.59 804.654 1555.1 790.218 1537.47C775.268 1519.23 764.283 1498.4 757.575 1475.58L444.94 412.922C438.224 390.096 436.175 366.641 438.86 343.196C441.45 320.553 448.315 298.877 459.27 278.775C470.224 258.673 484.718 241.154 502.342 226.704C520.589 211.74 541.414 200.739 564.232 194.018L1626.69 -119.281C1649.52 -126.01 1672.97 -128.072 1696.4 -125.399C1719.03 -122.82 1740.7 -115.964 1760.79 -105.016ZM844.6 1576.22C883.129 1597.22 929.654 1603.54 974.989 1590.17L2037.45 1276.88C2128.1 1250.15 2180.16 1154.63 2153.48 1063.96L1840.84 1.29922C1814.17 -89.3746 1718.71 -141.394 1628.05 -114.661L565.591 198.637C474.934 225.37 422.882 320.887 449.559 411.56L762.194 1474.22C775.531 1519.55 806.066 1555.23 844.595 1576.23L844.6 1576.22Z" fill="url(#paint0_linear_1386_471)"/>
<path d="M1752.03 -88.9475C1771.49 -78.3445 1788.44 -64.3115 1802.42 -47.2487C1816.9 -29.5764 1827.54 -9.41521 1834.04 12.6928L2141.6 1058.07C2148.1 1080.17 2150.08 1102.89 2147.48 1125.59C2144.97 1147.52 2138.32 1168.51 2127.71 1187.98C2117.1 1207.45 2103.07 1224.42 2086 1238.41C2068.33 1252.9 2048.17 1263.56 2026.06 1270.07L980.872 1578.29C958.768 1584.8 936.057 1586.79 913.362 1584.21C891.444 1581.71 870.462 1575.07 851.005 1564.46C831.548 1553.86 814.595 1539.83 800.612 1522.77C786.141 1505.09 775.499 1484.93 768.995 1462.82L461.447 417.456C454.942 395.348 452.961 372.626 455.562 349.927C458.073 328 464.722 307.007 475.332 287.538C485.941 268.07 499.979 251.103 517.043 237.107C534.717 222.621 554.877 211.965 576.981 205.448L1622.16 -102.753C1644.26 -109.271 1666.98 -111.265 1689.67 -108.676C1711.58 -106.174 1732.57 -99.5344 1752.02 -88.9314L1752.03 -88.9475ZM2024.7 1265.45C2112.42 1239.58 2162.78 1147.16 2136.97 1059.43L1829.42 14.0628C1816.92 -28.4316 1788.61 -63.5128 1749.72 -84.7057C1710.83 -105.898 1666.01 -110.666 1623.52 -98.1416L578.344 210.059C535.858 222.588 500.773 250.922 479.567 289.836C458.361 328.75 453.572 373.584 466.07 416.086L773.618 1461.45C786.12 1503.95 814.427 1539.03 853.317 1560.22C892.206 1581.42 937.022 1586.18 979.517 1573.66L2024.7 1265.45Z" fill="url(#paint1_linear_1386_471)"/>
<path d="M1743.28 -72.8782C1782 -51.7771 1810.18 -16.8597 1822.62 25.457L2125.09 1053.54C2137.54 1095.85 2132.77 1140.49 2111.66 1179.23C2090.54 1217.98 2055.62 1246.18 2013.31 1258.65L985.406 1561.77C943.105 1574.24 898.476 1569.49 859.763 1548.4C821.05 1527.3 792.869 1492.37 780.421 1450.06L477.959 421.982C465.512 379.674 470.282 335.027 491.392 296.29C512.506 257.545 547.427 229.339 589.736 216.87L1617.62 -86.2336C1659.93 -98.7071 1704.55 -93.9589 1743.27 -72.8622L1743.28 -72.8782ZM862.114 1544.08C898.151 1563.72 941.66 1569.63 984.048 1557.13L2011.94 1254.03C2053.02 1241.92 2086.92 1214.54 2107.41 1176.93C2127.91 1139.32 2132.54 1095.99 2120.45 1054.91L1817.99 26.8351C1805.9 -14.2474 1778.55 -48.143 1740.97 -68.624C1703.39 -89.105 1660.07 -93.7215 1619 -81.605L591.111 221.498C550.036 233.61 516.137 260.99 495.644 298.596C475.15 336.203 470.512 379.539 482.603 420.613L785.053 1448.69C797.525 1491.09 826.081 1524.46 862.11 1544.09L862.114 1544.08Z" fill="url(#paint2_linear_1386_471)"/>
<path d="M1734.52 -56.8088C1771.93 -36.4195 1799.17 -2.67105 1811.19 38.2213L2108.57 1049.02C2120.6 1089.92 2115.99 1133.05 2095.59 1170.49C2075.19 1207.93 2041.44 1235.19 2000.55 1247.24L989.943 1545.24C949.054 1557.3 905.939 1552.71 868.524 1532.32C831.109 1511.93 803.873 1478.18 791.85 1437.29L494.475 426.501C482.443 385.604 487.053 342.472 507.455 305.034C527.857 267.595 561.608 240.333 602.493 228.284L1613.09 -69.7216C1653.98 -81.779 1697.1 -77.19 1734.51 -56.8007L1734.52 -56.8088ZM1999.19 1242.61C2081.03 1218.47 2128.02 1132.24 2103.94 1050.39L1806.56 39.587C1794.89 -0.0712019 1768.49 -32.7935 1732.21 -52.567C1695.92 -72.3406 1654.1 -76.7941 1614.46 -65.0975L603.848 232.912C564.197 244.604 531.472 271.032 511.686 307.339C491.9 343.647 487.426 385.481 499.098 425.131L796.477 1435.93C808.144 1475.59 834.546 1508.31 870.831 1528.08C907.116 1547.86 948.933 1552.31 988.576 1540.62L1999.19 1242.61Z" fill="url(#paint3_linear_1386_471)"/>
<path d="M1725.76 -40.7316C1761.87 -21.0498 1788.15 11.5211 1799.77 50.9855L2092.06 1044.5C2103.67 1083.97 2099.23 1125.6 2079.53 1161.74C2059.84 1197.88 2027.26 1224.18 1987.8 1235.82L994.476 1528.72C955.011 1540.36 913.397 1535.93 877.28 1516.25C841.163 1496.57 814.887 1464 803.274 1424.52L510.982 431.015C499.369 391.542 503.816 349.912 523.51 313.773C543.204 277.633 575.778 251.331 615.243 239.694L1608.57 -53.2179C1648.04 -64.8554 1689.64 -60.4215 1725.76 -40.7396L1725.76 -40.7316ZM879.626 1511.94C913.163 1530.22 953.66 1535.72 993.113 1524.09L1986.44 1231.18C2024.66 1219.91 2056.22 1194.43 2075.29 1159.43C2094.37 1124.43 2098.68 1084.09 2087.43 1045.86L1795.14 52.3512C1783.53 12.8911 1756.95 -18.1581 1723.41 -36.4338C1689.88 -54.7094 1649.38 -60.2115 1609.93 -48.5777L616.601 244.334C578.374 255.606 546.818 281.09 527.745 316.091C508.671 351.092 504.361 391.423 515.609 429.657L807.905 1423.16C819.515 1462.62 846.09 1493.67 879.626 1511.94Z" fill="url(#paint4_linear_1386_471)"/>
<path d="M1717 -24.6628C1751.81 -5.69279 1777.15 25.7092 1788.34 63.7492L2075.54 1039.96C2086.73 1078.01 2082.44 1118.14 2063.46 1152.98C2044.48 1187.81 2013.07 1213.17 1975.04 1224.39L999.01 1512.2C960.969 1523.42 920.853 1519.14 886.042 1500.17C851.232 1481.2 825.898 1449.8 814.7 1411.76L527.495 435.541C516.301 397.493 520.596 357.36 539.578 322.528C558.56 287.696 589.964 262.337 627.997 251.115L1604.04 -36.6987C1642.08 -47.9163 1682.2 -43.6409 1717.01 -24.6709L1717 -24.6628ZM888.384 1495.87C920.671 1513.47 959.66 1518.76 997.647 1507.57L1973.68 1219.76C2010.48 1208.91 2040.85 1184.37 2059.22 1150.67C2077.58 1116.97 2081.73 1078.14 2070.91 1041.33L1783.7 65.1105C1761.35 -10.8741 1681.36 -54.4651 1605.39 -32.0629L629.348 255.751C553.377 278.153 509.759 358.194 532.118 434.171L819.331 1410.39C830.507 1448.38 856.098 1478.28 888.384 1495.87Z" fill="url(#paint5_linear_1386_471)"/>
<path d="M1708.24 -8.59344C1741.76 9.66914 1766.14 39.8897 1776.92 76.5134L2059.03 1035.44C2069.8 1072.06 2065.67 1110.69 2047.4 1144.22C2029.13 1177.74 1998.91 1202.16 1962.29 1212.96L1003.53 1495.68C966.918 1506.47 928.303 1502.36 894.799 1484.1C861.286 1465.84 836.899 1435.62 826.132 1399L544.014 440.071C533.239 403.448 537.37 364.818 555.644 331.284C573.918 297.751 604.141 273.34 640.754 262.55L1599.51 -20.1664C1636.12 -30.964 1674.74 -26.8517 1708.24 -8.59344ZM1960.93 1208.33C2033.95 1186.79 2075.88 1109.84 2054.4 1036.8L1772.28 77.8747C1750.79 4.82551 1673.89 -37.0718 1600.86 -15.5387L642.109 267.178C606.73 277.61 577.529 301.195 559.871 333.598C542.218 365.993 538.222 403.324 548.633 438.709L830.756 1397.63C841.166 1433.02 864.728 1462.21 897.11 1479.86C929.485 1497.5 966.801 1501.48 1002.18 1491.05L1960.93 1208.33Z" fill="url(#paint6_linear_1386_471)"/>
<path d="M1699.49 7.47529C1731.69 25.0261 1755.13 54.0734 1765.48 89.2728L2042.52 1030.91C2052.87 1066.11 2048.9 1103.24 2031.34 1135.47C2013.78 1167.69 1984.73 1191.15 1949.54 1201.53L1008.07 1479.16C972.875 1489.53 935.761 1485.58 903.555 1468.03C871.349 1450.48 847.904 1421.43 837.557 1386.24L560.525 444.597C550.169 409.398 554.137 372.27 571.699 340.043C589.26 307.817 618.31 284.357 653.503 273.98L1594.97 -3.63909C1630.16 -14.0168 1667.28 -10.0674 1699.48 7.48333L1699.49 7.47529ZM905.866 1463.79C936.943 1480.73 972.75 1484.54 1006.7 1474.52L1948.17 1196.91C1982.13 1186.89 2010.16 1164.25 2027.1 1133.16C2044.05 1102.07 2047.87 1066.25 2037.88 1032.29L1760.85 90.6465C1750.86 56.6857 1728.24 28.6558 1697.17 11.7252C1666.09 -5.20985 1630.29 -9.01939 1596.33 0.993091L654.866 278.612C584.777 299.28 544.532 373.13 565.152 443.24L842.188 1384.87C852.179 1418.83 874.798 1446.86 905.866 1463.79Z" fill="url(#paint7_linear_1386_471)"/>
<path d="M1690.73 23.552C1721.63 40.3953 1744.12 68.2694 1754.06 102.044L2026 1026.39C2035.94 1060.17 2032.13 1095.8 2015.28 1126.72C1998.43 1157.65 1970.55 1180.16 1936.78 1190.12L1012.6 1462.64C978.833 1472.59 943.213 1468.8 912.313 1451.97C881.413 1435.13 858.919 1407.25 848.983 1373.47L577.038 449.123C567.101 415.348 570.909 379.714 587.759 348.794C604.608 317.875 632.489 295.359 666.258 285.402L1590.44 12.8801C1624.21 2.92237 1659.83 6.71309 1690.73 23.552ZM1935.42 1185.48C2002.57 1165.68 2041.13 1094.93 2021.37 1027.76L1749.43 103.41C1739.85 70.8736 1718.19 44.0171 1688.42 27.7939C1658.65 11.5707 1624.33 7.91968 1591.8 17.5122L667.621 290.034C635.09 299.626 608.231 321.316 591.998 351.105C575.765 380.893 572.097 415.221 581.669 447.757L853.614 1372.11C863.186 1404.64 884.854 1431.5 914.625 1447.72C944.395 1463.95 978.709 1467.6 1011.24 1458L1935.42 1185.48Z" fill="url(#paint8_linear_1386_471)"/>
<path d="M1681.97 39.6214C1711.57 55.7529 1733.12 82.4499 1742.64 114.801L2009.49 1021.87C2019.01 1054.22 2015.36 1088.35 1999.22 1117.97C1983.08 1147.59 1956.37 1169.16 1924.03 1178.69L1017.13 1446.12C984.79 1455.66 950.671 1452.03 921.069 1435.9C891.468 1419.76 869.925 1393.06 860.407 1360.71L593.549 453.649C584.031 421.299 587.676 387.166 603.817 357.546C619.959 327.926 646.658 306.357 679.011 296.824L1585.9 29.3999C1618.25 19.8621 1652.36 23.4979 1681.97 39.6294L1681.97 39.6214ZM923.381 1431.65C951.853 1447.17 984.666 1450.66 1015.77 1441.49L1922.67 1174.06C1953.77 1164.89 1979.46 1144.15 1994.98 1115.66C2010.51 1087.17 2014.02 1054.35 2004.86 1023.23L1738 116.174C1728.85 85.0622 1708.13 59.3789 1679.66 43.8631C1651.19 28.3473 1618.38 24.8514 1587.27 34.032L680.374 301.456C616.155 320.393 579.283 388.053 598.18 452.284L865.038 1359.34C874.192 1390.46 894.909 1416.14 923.381 1431.65Z" fill="url(#paint9_linear_1386_471)"/>
<path d="M1673.21 55.6905C1701.51 71.1102 1722.11 96.6382 1731.21 127.565L1992.98 1017.34C2002.08 1048.27 1998.59 1080.89 1983.15 1109.22C1967.72 1137.53 1942.19 1158.15 1911.27 1167.27L1021.67 1429.6C990.747 1438.72 958.133 1435.24 929.83 1419.82C901.534 1404.4 880.93 1378.87 871.831 1347.94L610.056 458.163C600.958 427.237 604.446 394.611 619.88 366.289C635.309 337.976 660.84 317.351 691.76 308.233L1581.38 45.9034C1612.3 36.7855 1644.91 40.2585 1673.22 55.6825L1673.21 55.6905ZM1909.91 1162.64C1971.19 1144.57 2006.38 1080 1988.34 1018.72L1726.57 128.934C1717.83 99.2461 1698.05 74.7399 1670.89 59.9359C1643.72 45.132 1612.42 41.7989 1582.72 50.5472L693.106 312.877C631.822 330.949 596.638 395.514 614.675 456.801L876.462 1346.58C894.496 1407.87 959.02 1443.04 1020.3 1424.96L1909.91 1162.64Z" fill="url(#paint10_linear_1386_471)"/>
<path d="M1664.45 71.7595C1691.45 86.4717 1711.1 110.822 1719.78 140.324L1976.47 1012.82C1985.14 1042.32 1981.82 1073.44 1967.1 1100.46C1952.38 1127.47 1928.02 1147.14 1898.53 1155.83L1026.19 1413.07C996.695 1421.77 965.576 1418.46 938.578 1403.75C911.581 1389.03 891.935 1364.68 883.255 1335.18L626.567 462.689C617.888 433.187 621.213 402.063 635.934 375.049C650.656 348.035 675.008 328.369 704.505 319.671L1576.84 62.4389C1606.33 53.7409 1637.44 57.0509 1664.44 71.7631L1664.45 71.7595ZM1897.16 1151.21C1955.5 1134.01 1989 1072.53 1971.83 1014.18L1715.15 141.69C1706.56 112.522 1686.9 89.5563 1662.11 76.0369C1637.31 62.5212 1607.38 58.4601 1578.2 67.0632L705.872 324.296C677.614 332.628 654.279 351.475 640.178 377.351C626.077 403.227 622.888 433.052 631.203 461.316L887.891 1333.81C905.057 1392.16 966.489 1425.63 1024.83 1408.43L1897.16 1151.21Z" fill="url(#paint11_linear_1386_471)"/>
<path d="M1655.69 87.8366C1681.39 101.837 1700.09 125.018 1708.35 153.096L1959.95 1008.3C1968.21 1036.38 1965.05 1066.01 1951.04 1091.71C1937.03 1117.42 1913.84 1136.14 1885.77 1144.42L1030.73 1396.55C1002.65 1404.83 973.036 1401.68 947.344 1387.68C921.653 1373.68 902.95 1350.5 894.69 1322.42L643.088 467.22C634.828 439.142 637.993 409.512 652.003 383.805C666.012 358.097 689.195 339.376 717.268 331.098L1572.31 78.9629C1600.39 70.6848 1630 73.8362 1655.69 87.8366ZM1884.41 1139.79C1939.81 1123.45 1971.62 1065.08 1955.32 1009.66L1703.72 154.454C1695.83 127.615 1677.95 105.455 1653.39 92.0703C1628.83 78.6856 1600.51 75.6741 1573.68 83.587L718.635 335.722C663.233 352.059 631.421 410.434 647.719 465.854L899.321 1321.06C907.217 1347.89 925.095 1370.05 949.656 1383.44C974.217 1396.82 1002.53 1399.84 1029.36 1391.92L1884.41 1139.79Z" fill="url(#paint12_linear_1386_471)"/>
<path d="M1646.94 103.905C1671.33 117.198 1689.09 139.199 1696.92 165.86L1943.44 1003.77C1951.28 1030.43 1948.28 1058.55 1934.98 1082.96C1921.68 1107.37 1899.67 1125.14 1873.02 1133L1035.26 1380.03C1008.61 1387.89 980.494 1384.9 956.101 1371.61C931.708 1358.32 913.951 1336.32 906.114 1309.66L659.599 471.745C651.758 445.092 654.76 416.964 668.061 392.556C681.362 368.147 703.364 350.373 730.021 342.52L1567.78 95.4822C1594.43 87.624 1622.54 90.6124 1646.94 103.905ZM1871.65 1128.37C1897.06 1120.87 1918.05 1103.93 1930.74 1080.65C1943.42 1057.37 1946.29 1030.56 1938.81 1005.14L1692.29 167.226C1684.81 141.806 1667.89 120.825 1644.63 108.147C1621.36 95.47 1594.56 92.6133 1569.14 100.114L731.384 347.152C705.969 354.653 684.985 371.588 672.3 394.866C659.615 418.143 656.745 444.96 664.23 470.38L910.745 1308.29C918.23 1333.71 935.149 1354.69 958.412 1367.37C981.675 1380.05 1008.48 1382.9 1033.9 1375.4L1871.65 1128.37Z" fill="url(#paint13_linear_1386_471)"/>
<path d="M1638.16 120.015C1660.29 132.076 1677.84 152.578 1685.5 178.616L1926.93 999.238C1934.36 1024.47 1931.52 1051.09 1918.92 1074.2C1906.33 1097.3 1885.5 1114.13 1860.27 1121.57L1039.79 1363.52C1014.57 1370.95 987.952 1368.13 964.857 1355.54C941.762 1342.96 924.964 1322.13 917.538 1296.89L676.11 476.272C660.785 424.179 690.691 369.3 742.774 353.942L1563.24 112.002C1589.29 104.323 1616.01 107.957 1638.15 120.023L1638.16 120.015ZM967.169 1351.3C989.125 1363.27 1014.43 1365.96 1038.43 1358.88L1858.9 1116.94C1882.9 1109.87 1902.71 1093.87 1914.68 1071.9C1926.65 1049.93 1929.36 1024.61 1922.3 1000.61L1680.87 179.99C1666.29 130.448 1614.14 102.028 1564.61 116.634L744.137 358.574C694.604 373.18 666.166 425.364 680.742 474.906L922.17 1295.53C929.231 1319.53 945.212 1339.34 967.169 1351.3Z" fill="url(#paint14_linear_1386_471)"/>
<path d="M1629.4 136.084C1650.29 147.468 1666.84 166.803 1674.07 191.388L1910.42 994.72C1924.88 1043.88 1896.66 1095.65 1847.51 1110.15L1044.32 1346.99C995.169 1361.48 943.426 1333.29 928.964 1284.13L692.623 480.798C685.616 456.981 688.307 431.865 700.188 410.063C712.069 388.261 731.724 372.39 755.529 365.364L1558.71 128.522C1583.28 121.277 1608.51 124.699 1629.4 136.084ZM1846.15 1105.51C1892.75 1091.77 1919.5 1042.68 1905.78 996.085L1669.44 192.754C1655.73 146.155 1606.67 119.413 1560.08 133.158L756.9 370C710.302 383.741 683.551 432.83 697.267 479.429L933.608 1282.76C947.319 1329.37 996.378 1356.1 1042.97 1342.36L1846.15 1105.51Z" fill="url(#paint15_linear_1386_471)"/>
<path d="M1620.66 152.121C1641.14 163.283 1656.06 181.767 1662.64 204.148L1893.9 990.202C1907.5 1036.42 1880.97 1085.1 1834.76 1098.73L1048.85 1330.47C1026.46 1337.07 1002.86 1334.56 982.374 1323.4C961.892 1312.23 946.975 1293.76 940.395 1271.37L709.137 485.316C695.539 439.094 722.067 390.413 768.281 376.786L1554.19 145.037C1576.58 138.435 1600.18 140.951 1620.67 152.113L1620.66 152.121ZM1833.4 1094.09C1877.05 1081.22 1902.12 1035.22 1889.27 991.559L1658.01 205.505C1645.17 161.847 1599.2 136.793 1555.55 149.665L769.636 381.414C725.985 394.285 700.916 440.287 713.761 483.946L945.019 1270C957.863 1313.66 1003.83 1338.71 1047.49 1325.84L1833.4 1094.09Z" fill="url(#paint16_linear_1386_471)"/>
<path d="M1611.9 168.189C1631.09 178.644 1645.05 195.943 1651.22 216.911L1877.39 985.675C1883.56 1006.64 1881.19 1028.76 1870.73 1047.95C1860.27 1067.15 1842.97 1081.13 1822.01 1087.3L1053.38 1313.95C1010.12 1326.71 964.552 1301.88 951.821 1258.61L725.649 489.842C719.48 468.873 721.844 446.762 732.305 427.565C742.765 408.369 760.066 394.398 781.03 388.215L1549.65 161.565C1570.62 155.383 1592.72 157.735 1611.9 168.189ZM993.443 1303.09C1011.5 1312.92 1032.29 1315.14 1052.02 1309.32L1820.64 1082.67C1840.37 1076.85 1856.65 1063.7 1866.49 1045.64C1876.34 1027.58 1878.56 1006.77 1872.76 987.041L1646.58 218.277C1634.6 177.554 1591.73 154.19 1551.02 166.197L782.393 392.848C741.677 404.854 718.3 447.753 730.281 488.476L956.452 1257.24C962.256 1276.97 975.397 1293.25 993.443 1303.09Z" fill="url(#paint17_linear_1386_471)"/>
<path d="M1603.13 184.291C1620.27 193.632 1633.86 209.5 1639.79 229.676L1860.88 981.149C1866.63 1000.69 1864.42 1021.31 1854.67 1039.2C1844.92 1057.09 1828.79 1070.12 1809.25 1075.88L1057.92 1297.43C1017.59 1309.33 975.114 1286.18 963.246 1245.84L742.162 494.368C736.412 474.824 738.616 454.206 748.364 436.317C758.113 418.428 774.244 405.4 793.785 399.638L1545.12 178.085C1565.29 172.136 1585.99 174.95 1603.13 184.291ZM1002.2 1287.02C1018.95 1296.14 1038.25 1298.2 1056.55 1292.8L1807.89 1071.25C1826.19 1065.85 1841.3 1053.65 1850.43 1036.89C1859.57 1020.13 1861.63 1000.82 1856.25 982.515L1635.16 231.041C1629.77 212.736 1617.59 197.627 1600.84 188.501C1584.09 179.374 1564.79 177.32 1546.48 182.717L795.148 404.27C776.845 409.667 761.736 421.868 752.603 438.627C743.471 455.386 741.407 474.697 746.793 493.002L967.877 1244.48C973.263 1262.78 985.453 1277.89 1002.2 1287.02Z" fill="url(#paint18_linear_1386_471)"/>
<path d="M1594.37 200.36C1610.26 209.019 1622.86 223.737 1628.37 242.44L1844.36 976.623C1855.37 1014.03 1833.9 1053.43 1796.5 1064.46L1062.45 1280.91C1025.05 1291.94 985.675 1270.48 974.67 1233.08L758.673 498.894C747.668 461.49 769.141 422.087 806.538 411.06L1540.59 194.604C1559.29 189.09 1578.48 191.696 1594.37 200.36ZM1010.97 1270.92C1025.78 1278.99 1043.66 1281.42 1061.09 1276.28L1795.14 1059.83C1812.01 1054.85 1825.95 1043.6 1834.38 1028.14C1842.8 1012.68 1844.7 994.87 1839.73 977.989L1623.74 243.805C1618.77 226.924 1607.53 212.989 1592.08 204.57C1576.63 196.15 1558.83 194.259 1541.95 199.236L807.901 415.692C791.023 420.669 777.087 431.919 768.662 447.379C760.237 462.838 758.337 480.647 763.304 497.529L979.302 1231.71C984.429 1249.14 996.166 1262.85 1010.97 1270.92Z" fill="url(#paint19_linear_1386_471)"/>
<path d="M1585.62 216.429C1600.27 224.412 1611.87 237.971 1616.94 255.204L1827.85 972.097C1832.76 988.793 1830.88 1006.4 1822.55 1021.69C1814.22 1036.98 1800.44 1048.11 1783.75 1053.04L1066.98 1264.39C1032.51 1274.55 996.228 1254.78 986.095 1220.31L775.184 503.42C765.043 468.952 784.825 432.652 819.287 422.49L1536.05 211.132C1553.27 206.052 1570.96 208.454 1585.61 216.437L1585.62 216.429ZM1019.73 1254.85C1033.29 1262.24 1049.66 1264.46 1065.62 1259.76L1782.39 1048.4C1797.84 1043.84 1810.6 1033.53 1818.31 1019.38C1826.02 1005.22 1827.77 988.92 1823.23 973.455L1612.31 256.561C1602.92 224.644 1569.33 206.346 1537.43 215.752L820.667 427.11C788.763 436.525 770.446 470.138 779.832 502.043L990.743 1218.94C995.436 1234.89 1006.18 1247.44 1019.75 1254.84L1019.73 1254.85Z" fill="url(#paint20_linear_1386_471)"/>
<path d="M1576.87 232.474C1590.85 240.09 1601.02 252.692 1605.51 267.963L1811.33 967.567C1820.61 999.088 1802.51 1032.3 1770.99 1041.6L1071.51 1247.87C1056.24 1252.37 1040.14 1250.66 1026.16 1243.04C1012.19 1235.43 1002.02 1222.83 997.529 1207.55L791.704 507.951C787.211 492.68 788.937 476.564 796.553 462.588C804.174 448.604 816.777 438.426 832.045 433.924L1531.52 227.663C1546.79 223.161 1562.9 224.878 1576.87 232.49L1576.87 232.474ZM1769.63 1036.97C1798.6 1028.43 1815.23 997.906 1806.71 968.937L1600.89 269.333C1596.76 255.301 1587.41 243.716 1574.57 236.72C1561.72 229.72 1546.93 228.147 1532.9 232.284L833.425 438.545C819.394 442.682 807.809 452.041 800.809 464.886C793.804 477.74 792.224 492.541 796.352 506.573L1002.18 1206.18C1006.31 1220.21 1015.65 1231.79 1028.49 1238.79C1041.33 1245.79 1056.13 1247.36 1070.16 1243.23L1769.63 1036.97Z" fill="url(#paint21_linear_1386_471)"/>
<defs>
<linearGradient id="paint0_linear_1386_471" x1="2143.77" y1="1196.73" x2="459.266" y2="278.762" gradientUnits="userSpaceOnUse">
<stop stop-color="#1868AB"/>
<stop offset="0.2" stop-color="#2274C7"/>
<stop offset="0.32" stop-color="#2275C8" stop-opacity="0.99"/>
<stop offset="0.37" stop-color="#227BCF" stop-opacity="0.93"/>
<stop offset="0.4" stop-color="#2285DA" stop-opacity="0.84"/>
<stop offset="0.42" stop-color="#2294EB" stop-opacity="0.7"/>
<stop offset="0.44" stop-color="#23A0F8" stop-opacity="0.6"/>
<stop offset="0.7" stop-color="#23A0F8"/>
<stop offset="0.87" stop-color="#34D6FC"/>
<stop offset="1" stop-color="#34D6FC" stop-opacity="0.5"/>
</linearGradient>
<linearGradient id="paint1_linear_1386_471" x1="2127.71" y1="1187.98" x2="475.333" y2="287.518" gradientUnits="userSpaceOnUse">
<stop stop-color="#1868AB"/>
<stop offset="0.2" stop-color="#2274C7"/>
<stop offset="0.32" stop-color="#2275C8" stop-opacity="0.99"/>
<stop offset="0.37" stop-color="#227BCF" stop-opacity="0.93"/>
<stop offset="0.4" stop-color="#2285DA" stop-opacity="0.84"/>
<stop offset="0.42" stop-color="#2294EB" stop-opacity="0.7"/>
<stop offset="0.44" stop-color="#23A0F8" stop-opacity="0.6"/>
<stop offset="0.7" stop-color="#23A0F8"/>
<stop offset="0.87" stop-color="#34D6FC"/>
<stop offset="1" stop-color="#34D6FC" stop-opacity="0.5"/>
</linearGradient>
<linearGradient id="paint2_linear_1386_471" x1="2111.65" y1="1179.23" x2="491.393" y2="296.269" gradientUnits="userSpaceOnUse">
<stop stop-color="#1868AB"/>
<stop offset="0.2" stop-color="#2274C7"/>
<stop offset="0.32" stop-color="#2275C8" stop-opacity="0.99"/>
<stop offset="0.37" stop-color="#227BCF" stop-opacity="0.93"/>
<stop offset="0.4" stop-color="#2285DA" stop-opacity="0.84"/>
<stop offset="0.42" stop-color="#2294EB" stop-opacity="0.7"/>
<stop offset="0.44" stop-color="#23A0F8" stop-opacity="0.6"/>
<stop offset="0.7" stop-color="#23A0F8"/>
<stop offset="0.87" stop-color="#34D6FC"/>
<stop offset="1" stop-color="#34D6FC" stop-opacity="0.5"/>
</linearGradient>
<linearGradient id="paint3_linear_1386_471" x1="2095.59" y1="1170.48" x2="507.451" y2="305.021" gradientUnits="userSpaceOnUse">
<stop stop-color="#1868AB"/>
<stop offset="0.2" stop-color="#2274C7"/>
<stop offset="0.32" stop-color="#2275C8" stop-opacity="0.99"/>
<stop offset="0.37" stop-color="#227BCF" stop-opacity="0.93"/>
<stop offset="0.4" stop-color="#2285DA" stop-opacity="0.84"/>
<stop offset="0.42" stop-color="#2294EB" stop-opacity="0.7"/>
<stop offset="0.44" stop-color="#23A0F8" stop-opacity="0.6"/>
<stop offset="0.7" stop-color="#23A0F8"/>
<stop offset="0.87" stop-color="#34D6FC"/>
<stop offset="1" stop-color="#34D6FC" stop-opacity="0.5"/>
</linearGradient>
<linearGradient id="paint4_linear_1386_471" x1="2079.53" y1="1161.72" x2="523.51" y2="313.773" gradientUnits="userSpaceOnUse">
<stop stop-color="#1868AB"/>
<stop offset="0.2" stop-color="#2274C7"/>
<stop offset="0.32" stop-color="#2275C8" stop-opacity="0.99"/>
<stop offset="0.37" stop-color="#227BCF" stop-opacity="0.93"/>
<stop offset="0.4" stop-color="#2285DA" stop-opacity="0.84"/>
<stop offset="0.42" stop-color="#2294EB" stop-opacity="0.7"/>
<stop offset="0.44" stop-color="#23A0F8" stop-opacity="0.6"/>
<stop offset="0.7" stop-color="#23A0F8"/>
<stop offset="0.87" stop-color="#34D6FC"/>
<stop offset="1" stop-color="#34D6FC" stop-opacity="0.5"/>
</linearGradient>
<linearGradient id="paint5_linear_1386_471" x1="2063.46" y1="1152.97" x2="539.578" y2="322.528" gradientUnits="userSpaceOnUse">
<stop stop-color="#1868AB"/>
<stop offset="0.2" stop-color="#2274C7"/>
<stop offset="0.32" stop-color="#2275C8" stop-opacity="0.99"/>
<stop offset="0.37" stop-color="#227BCF" stop-opacity="0.93"/>
<stop offset="0.4" stop-color="#2285DA" stop-opacity="0.84"/>
<stop offset="0.42" stop-color="#2294EB" stop-opacity="0.7"/>
<stop offset="0.44" stop-color="#23A0F8" stop-opacity="0.6"/>
<stop offset="0.7" stop-color="#23A0F8"/>
<stop offset="0.87" stop-color="#34D6FC"/>
<stop offset="1" stop-color="#34D6FC" stop-opacity="0.5"/>
</linearGradient>
<linearGradient id="paint6_linear_1386_471" x1="2047.4" y1="1144.22" x2="555.636" y2="331.28" gradientUnits="userSpaceOnUse">
<stop stop-color="#1868AB"/>
<stop offset="0.2" stop-color="#2274C7"/>
<stop offset="0.32" stop-color="#2275C8" stop-opacity="0.99"/>
<stop offset="0.37" stop-color="#227BCF" stop-opacity="0.93"/>
<stop offset="0.4" stop-color="#2285DA" stop-opacity="0.84"/>
<stop offset="0.42" stop-color="#2294EB" stop-opacity="0.7"/>
<stop offset="0.44" stop-color="#23A0F8" stop-opacity="0.6"/>
<stop offset="0.7" stop-color="#23A0F8"/>
<stop offset="0.87" stop-color="#34D6FC"/>
<stop offset="1" stop-color="#34D6FC" stop-opacity="0.5"/>
</linearGradient>
<linearGradient id="paint7_linear_1386_471" x1="2031.34" y1="1135.47" x2="571.695" y2="340.031" gradientUnits="userSpaceOnUse">
<stop stop-color="#1868AB"/>
<stop offset="0.2" stop-color="#2274C7"/>
<stop offset="0.32" stop-color="#2275C8" stop-opacity="0.99"/>
<stop offset="0.37" stop-color="#227BCF" stop-opacity="0.93"/>
<stop offset="0.4" stop-color="#2285DA" stop-opacity="0.84"/>
<stop offset="0.42" stop-color="#2294EB" stop-opacity="0.7"/>
<stop offset="0.44" stop-color="#23A0F8" stop-opacity="0.6"/>
<stop offset="0.7" stop-color="#23A0F8"/>
<stop offset="0.87" stop-color="#34D6FC"/>
<stop offset="1" stop-color="#34D6FC" stop-opacity="0.5"/>
</linearGradient>
<linearGradient id="paint8_linear_1386_471" x1="2015.29" y1="1126.71" x2="587.755" y2="348.782" gradientUnits="userSpaceOnUse">
<stop stop-color="#1868AB"/>
<stop offset="0.2" stop-color="#2274C7"/>
<stop offset="0.32" stop-color="#2275C8" stop-opacity="0.99"/>
<stop offset="0.37" stop-color="#227BCF" stop-opacity="0.93"/>
<stop offset="0.4" stop-color="#2285DA" stop-opacity="0.84"/>
<stop offset="0.42" stop-color="#2294EB" stop-opacity="0.7"/>
<stop offset="0.44" stop-color="#23A0F8" stop-opacity="0.6"/>
<stop offset="0.7" stop-color="#23A0F8"/>
<stop offset="0.87" stop-color="#34D6FC"/>
<stop offset="1" stop-color="#34D6FC" stop-opacity="0.5"/>
</linearGradient>
<linearGradient id="paint9_linear_1386_471" x1="1999.23" y1="1117.96" x2="603.822" y2="357.538" gradientUnits="userSpaceOnUse">
<stop stop-color="#1868AB"/>
<stop offset="0.2" stop-color="#2274C7"/>
<stop offset="0.32" stop-color="#2275C8" stop-opacity="0.99"/>
<stop offset="0.37" stop-color="#227BCF" stop-opacity="0.93"/>
<stop offset="0.4" stop-color="#2285DA" stop-opacity="0.84"/>
<stop offset="0.42" stop-color="#2294EB" stop-opacity="0.7"/>
<stop offset="0.44" stop-color="#23A0F8" stop-opacity="0.6"/>
<stop offset="0.7" stop-color="#23A0F8"/>
<stop offset="0.87" stop-color="#34D6FC"/>
<stop offset="1" stop-color="#34D6FC" stop-opacity="0.5"/>
</linearGradient>
<linearGradient id="paint10_linear_1386_471" x1="1983.16" y1="1109.21" x2="619.88" y2="366.289" gradientUnits="userSpaceOnUse">
<stop stop-color="#1868AB"/>
<stop offset="0.2" stop-color="#2274C7"/>
<stop offset="0.32" stop-color="#2275C8" stop-opacity="0.99"/>
<stop offset="0.37" stop-color="#227BCF" stop-opacity="0.93"/>
<stop offset="0.4" stop-color="#2285DA" stop-opacity="0.84"/>
<stop offset="0.42" stop-color="#2294EB" stop-opacity="0.7"/>
<stop offset="0.44" stop-color="#23A0F8" stop-opacity="0.6"/>
<stop offset="0.7" stop-color="#23A0F8"/>
<stop offset="0.87" stop-color="#34D6FC"/>
<stop offset="1" stop-color="#34D6FC" stop-opacity="0.5"/>
</linearGradient>
<linearGradient id="paint11_linear_1386_471" x1="1967.1" y1="1100.46" x2="635.939" y2="375.041" gradientUnits="userSpaceOnUse">
<stop stop-color="#1868AB"/>
<stop offset="0.2" stop-color="#2274C7"/>
<stop offset="0.32" stop-color="#2275C8" stop-opacity="0.99"/>
<stop offset="0.37" stop-color="#227BCF" stop-opacity="0.93"/>
<stop offset="0.4" stop-color="#2285DA" stop-opacity="0.84"/>
<stop offset="0.42" stop-color="#2294EB" stop-opacity="0.7"/>
<stop offset="0.44" stop-color="#23A0F8" stop-opacity="0.6"/>
<stop offset="0.7" stop-color="#23A0F8"/>
<stop offset="0.87" stop-color="#34D6FC"/>
<stop offset="1" stop-color="#34D6FC" stop-opacity="0.5"/>
</linearGradient>
<linearGradient id="paint12_linear_1386_471" x1="1951.04" y1="1091.71" x2="651.999" y2="383.792" gradientUnits="userSpaceOnUse">
<stop stop-color="#1868AB"/>
<stop offset="0.2" stop-color="#2274C7"/>
<stop offset="0.32" stop-color="#2275C8" stop-opacity="0.99"/>
<stop offset="0.37" stop-color="#227BCF" stop-opacity="0.93"/>
<stop offset="0.4" stop-color="#2285DA" stop-opacity="0.84"/>
<stop offset="0.42" stop-color="#2294EB" stop-opacity="0.7"/>
<stop offset="0.44" stop-color="#23A0F8" stop-opacity="0.6"/>
<stop offset="0.7" stop-color="#23A0F8"/>
<stop offset="0.87" stop-color="#34D6FC"/>
<stop offset="1" stop-color="#34D6FC" stop-opacity="0.5"/>
</linearGradient>
<linearGradient id="paint13_linear_1386_471" x1="1934.98" y1="1082.95" x2="668.065" y2="392.548" gradientUnits="userSpaceOnUse">
<stop stop-color="#1868AB"/>
<stop offset="0.2" stop-color="#2274C7"/>
<stop offset="0.32" stop-color="#2275C8" stop-opacity="0.99"/>
<stop offset="0.37" stop-color="#227BCF" stop-opacity="0.93"/>
<stop offset="0.4" stop-color="#2285DA" stop-opacity="0.84"/>
<stop offset="0.42" stop-color="#2294EB" stop-opacity="0.7"/>
<stop offset="0.44" stop-color="#23A0F8" stop-opacity="0.6"/>
<stop offset="0.7" stop-color="#23A0F8"/>
<stop offset="0.87" stop-color="#34D6FC"/>
<stop offset="1" stop-color="#34D6FC" stop-opacity="0.5"/>
</linearGradient>
<linearGradient id="paint14_linear_1386_471" x1="1918.9" y1="1074.22" x2="684.151" y2="401.345" gradientUnits="userSpaceOnUse">
<stop stop-color="#1868AB"/>
<stop offset="0.2" stop-color="#2274C7"/>
<stop offset="0.32" stop-color="#2275C8" stop-opacity="0.99"/>
<stop offset="0.37" stop-color="#227BCF" stop-opacity="0.93"/>
<stop offset="0.4" stop-color="#2285DA" stop-opacity="0.84"/>
<stop offset="0.42" stop-color="#2294EB" stop-opacity="0.7"/>
<stop offset="0.44" stop-color="#23A0F8" stop-opacity="0.6"/>
<stop offset="0.7" stop-color="#23A0F8"/>
<stop offset="0.87" stop-color="#34D6FC"/>
<stop offset="1" stop-color="#34D6FC" stop-opacity="0.5"/>
</linearGradient>
<linearGradient id="paint15_linear_1386_471" x1="1902.82" y1="1065.42" x2="700.184" y2="410.051" gradientUnits="userSpaceOnUse">
<stop stop-color="#1868AB"/>
<stop offset="0.2" stop-color="#2274C7"/>
<stop offset="0.32" stop-color="#2275C8" stop-opacity="0.99"/>
<stop offset="0.37" stop-color="#227BCF" stop-opacity="0.93"/>
<stop offset="0.4" stop-color="#2285DA" stop-opacity="0.84"/>
<stop offset="0.42" stop-color="#2294EB" stop-opacity="0.7"/>
<stop offset="0.44" stop-color="#23A0F8" stop-opacity="0.6"/>
<stop offset="0.7" stop-color="#23A0F8"/>
<stop offset="0.87" stop-color="#34D6FC"/>
<stop offset="1" stop-color="#34D6FC" stop-opacity="0.5"/>
</linearGradient>
<linearGradient id="paint16_linear_1386_471" x1="1886.76" y1="1056.67" x2="716.281" y2="418.824" gradientUnits="userSpaceOnUse">
<stop stop-color="#1868AB"/>
<stop offset="0.2" stop-color="#2274C7"/>
<stop offset="0.32" stop-color="#2275C8" stop-opacity="0.99"/>
<stop offset="0.37" stop-color="#227BCF" stop-opacity="0.93"/>
<stop offset="0.4" stop-color="#2285DA" stop-opacity="0.84"/>
<stop offset="0.42" stop-color="#2294EB" stop-opacity="0.7"/>
<stop offset="0.44" stop-color="#23A0F8" stop-opacity="0.6"/>
<stop offset="0.7" stop-color="#23A0F8"/>
<stop offset="0.87" stop-color="#34D6FC"/>
<stop offset="1" stop-color="#34D6FC" stop-opacity="0.5"/>
</linearGradient>
<linearGradient id="paint17_linear_1386_471" x1="1870.75" y1="1047.93" x2="732.318" y2="427.541" gradientUnits="userSpaceOnUse">
<stop stop-color="#1868AB"/>
<stop offset="0.2" stop-color="#2274C7"/>
<stop offset="0.32" stop-color="#2275C8" stop-opacity="0.99"/>
<stop offset="0.37" stop-color="#227BCF" stop-opacity="0.93"/>
<stop offset="0.4" stop-color="#2285DA" stop-opacity="0.84"/>
<stop offset="0.42" stop-color="#2294EB" stop-opacity="0.7"/>
<stop offset="0.44" stop-color="#23A0F8" stop-opacity="0.6"/>
<stop offset="0.7" stop-color="#23A0F8"/>
<stop offset="0.87" stop-color="#34D6FC"/>
<stop offset="1" stop-color="#34D6FC" stop-opacity="0.5"/>
</linearGradient>
<linearGradient id="paint18_linear_1386_471" x1="1854.67" y1="1039.19" x2="748.369" y2="436.309" gradientUnits="userSpaceOnUse">
<stop stop-color="#1868AB"/>
<stop offset="0.2" stop-color="#2274C7"/>
<stop offset="0.32" stop-color="#2275C8" stop-opacity="0.99"/>
<stop offset="0.37" stop-color="#227BCF" stop-opacity="0.93"/>
<stop offset="0.4" stop-color="#2285DA" stop-opacity="0.84"/>
<stop offset="0.42" stop-color="#2294EB" stop-opacity="0.7"/>
<stop offset="0.44" stop-color="#23A0F8" stop-opacity="0.6"/>
<stop offset="0.7" stop-color="#23A0F8"/>
<stop offset="0.87" stop-color="#34D6FC"/>
<stop offset="1" stop-color="#34D6FC" stop-opacity="0.5"/>
</linearGradient>
<linearGradient id="paint19_linear_1386_471" x1="1838.58" y1="1030.42" x2="764.459" y2="445.078" gradientUnits="userSpaceOnUse">
<stop stop-color="#1868AB"/>
<stop offset="0.2" stop-color="#2274C7"/>
<stop offset="0.32" stop-color="#2275C8" stop-opacity="0.99"/>
<stop offset="0.37" stop-color="#227BCF" stop-opacity="0.93"/>
<stop offset="0.4" stop-color="#2285DA" stop-opacity="0.84"/>
<stop offset="0.42" stop-color="#2294EB" stop-opacity="0.7"/>
<stop offset="0.44" stop-color="#23A0F8" stop-opacity="0.6"/>
<stop offset="0.7" stop-color="#23A0F8"/>
<stop offset="0.87" stop-color="#34D6FC"/>
<stop offset="1" stop-color="#34D6FC" stop-opacity="0.5"/>
</linearGradient>
<linearGradient id="paint20_linear_1386_471" x1="1822.55" y1="1021.69" x2="780.518" y2="453.829" gradientUnits="userSpaceOnUse">
<stop stop-color="#1868AB"/>
<stop offset="0.2" stop-color="#2274C7"/>
<stop offset="0.32" stop-color="#2275C8" stop-opacity="0.99"/>
<stop offset="0.37" stop-color="#227BCF" stop-opacity="0.93"/>
<stop offset="0.4" stop-color="#2285DA" stop-opacity="0.84"/>
<stop offset="0.42" stop-color="#2294EB" stop-opacity="0.7"/>
<stop offset="0.44" stop-color="#23A0F8" stop-opacity="0.6"/>
<stop offset="0.7" stop-color="#23A0F8"/>
<stop offset="0.87" stop-color="#34D6FC"/>
<stop offset="1" stop-color="#34D6FC" stop-opacity="0.5"/>
</linearGradient>
<linearGradient id="paint21_linear_1386_471" x1="1806.46" y1="1012.92" x2="796.554" y2="462.567" gradientUnits="userSpaceOnUse">
<stop stop-color="#1868AB"/>
<stop offset="0.2" stop-color="#2274C7"/>
<stop offset="0.32" stop-color="#2275C8" stop-opacity="0.99"/>
<stop offset="0.37" stop-color="#227BCF" stop-opacity="0.93"/>
<stop offset="0.4" stop-color="#2285DA" stop-opacity="0.84"/>
<stop offset="0.42" stop-color="#2294EB" stop-opacity="0.7"/>
<stop offset="0.44" stop-color="#23A0F8" stop-opacity="0.6"/>
<stop offset="0.7" stop-color="#23A0F8"/>
<stop offset="0.87" stop-color="#34D6FC"/>
<stop offset="1" stop-color="#34D6FC" stop-opacity="0.5"/>
</linearGradient>
</defs>
</svg>
