<svg width="1080" height="300" viewBox="0 0 1080 300" fill="none" xmlns="http://www.w3.org/2000/svg">
<g clip-path="url(#clip0_51_395)">
<rect width="1080" height="300" fill="white"/>
<path d="M242.231 150H85V387H242.231V150Z" fill="url(#paint0_linear_51_395)" fill-opacity="0.2"/>
<path d="M399.231 154H242V310H399.231V154Z" fill="url(#paint1_linear_51_395)" fill-opacity="0.1"/>
<path d="M609.231 0H452V177H609.231V0Z" fill="url(#paint2_linear_51_395)" fill-opacity="0.3"/>
<path d="M1080.23 170H923V407H1080.23V170Z" fill="url(#paint3_linear_51_395)" fill-opacity="0.2"/>
<path d="M138.231 -7H-19V184H138.231V-7Z" fill="url(#paint4_linear_51_395)" fill-opacity="0.25"/>
<path d="M766 300L923.231 300L923.231 200L766 200L766 300Z" fill="url(#paint5_linear_51_395)" fill-opacity="0.25"/>
<path d="M923.231 0H766V191H923.231V0Z" fill="url(#paint6_linear_51_395)" fill-opacity="0.25"/>
<path d="M295.231 0H138V87.0636H295.231V0Z" fill="url(#paint7_linear_51_395)" fill-opacity="0.25"/>
<path d="M609 310.064L766.231 310.064L766.231 87L609 87L609 310.064Z" fill="url(#paint8_linear_51_395)" fill-opacity="0.25"/>
<path d="M452.231 0H295V130.258H452.231V0Z" fill="url(#paint9_linear_51_395)" fill-opacity="0.2"/>
<path d="M452 300.258L609.231 300.258L609.231 170L452 170L452 300.258Z" fill="url(#paint10_linear_51_395)" fill-opacity="0.2"/>
<path d="M766.231 -14H609V86.5618H766.231V-14Z" fill="url(#paint11_linear_51_395)" fill-opacity="0.1"/>
<path d="M1080.23 0H923V87.0636H1080.23V0Z" fill="url(#paint12_linear_51_395)" fill-opacity="0.25"/>
</g>
<defs>
<linearGradient id="paint0_linear_51_395" x1="89.1349" y1="152.349" x2="107.847" y2="402.114" gradientUnits="userSpaceOnUse">
<stop stop-color="white" stop-opacity="0"/>
<stop offset="1" stop-color="#099FFC"/>
</linearGradient>
<linearGradient id="paint1_linear_51_395" x1="246.135" y1="155.546" x2="254.268" y2="320.47" gradientUnits="userSpaceOnUse">
<stop stop-color="white" stop-opacity="0"/>
<stop offset="1" stop-color="#099FFC"/>
</linearGradient>
<linearGradient id="paint2_linear_51_395" x1="456.135" y1="1.75406" x2="466.598" y2="188.749" gradientUnits="userSpaceOnUse">
<stop stop-color="#099FFC"/>
<stop offset="1" stop-color="white" stop-opacity="0"/>
</linearGradient>
<linearGradient id="paint3_linear_51_395" x1="927.135" y1="172.349" x2="945.847" y2="422.114" gradientUnits="userSpaceOnUse">
<stop stop-color="#099FFC"/>
<stop offset="1" stop-color="white" stop-opacity="0"/>
</linearGradient>
<linearGradient id="paint4_linear_51_395" x1="-14.8651" y1="-5.1072" x2="-2.68808" y2="196.575" gradientUnits="userSpaceOnUse">
<stop stop-color="#099FFC"/>
<stop offset="1" stop-color="white" stop-opacity="0"/>
</linearGradient>
<linearGradient id="paint5_linear_51_395" x1="919.097" y1="299.009" x2="915.75" y2="193.137" gradientUnits="userSpaceOnUse">
<stop stop-color="white" stop-opacity="0"/>
<stop offset="1" stop-color="#099FFC"/>
</linearGradient>
<linearGradient id="paint6_linear_51_395" x1="770.135" y1="1.8928" x2="782.312" y2="203.575" gradientUnits="userSpaceOnUse">
<stop stop-color="#099FFC"/>
<stop offset="1" stop-color="white" stop-opacity="0"/>
</linearGradient>
<linearGradient id="paint7_linear_51_395" x1="145" y1="-10.4611" x2="143.126" y2="85.9335" gradientUnits="userSpaceOnUse">
<stop stop-color="#099FFC"/>
<stop offset="1" stop-color="white" stop-opacity="0"/>
</linearGradient>
<linearGradient id="paint8_linear_51_395" x1="759.231" y1="336.866" x2="771.504" y2="90.4132" gradientUnits="userSpaceOnUse">
<stop stop-color="white" stop-opacity="0"/>
<stop offset="1" stop-color="#099FFC"/>
</linearGradient>
<linearGradient id="paint9_linear_51_395" x1="302" y1="-15.6511" x2="297.808" y2="128.5" gradientUnits="userSpaceOnUse">
<stop offset="0.283654" stop-color="#099FFC"/>
<stop offset="1" stop-color="white" stop-opacity="0"/>
</linearGradient>
<linearGradient id="paint10_linear_51_395" x1="602.231" y1="315.909" x2="606.423" y2="171.758" gradientUnits="userSpaceOnUse">
<stop offset="0.283654" stop-color="#099FFC"/>
<stop offset="1" stop-color="white" stop-opacity="0"/>
</linearGradient>
<linearGradient id="paint11_linear_51_395" x1="616" y1="-26.083" x2="613.501" y2="85.2425" gradientUnits="userSpaceOnUse">
<stop offset="0.283654" stop-color="#099FFC"/>
<stop offset="1" stop-color="white" stop-opacity="0"/>
</linearGradient>
<linearGradient id="paint12_linear_51_395" x1="930" y1="-10.4611" x2="928.126" y2="85.9335" gradientUnits="userSpaceOnUse">
<stop stop-color="#099FFC"/>
<stop offset="1" stop-color="white" stop-opacity="0"/>
</linearGradient>
<clipPath id="clip0_51_395">
<rect width="1080" height="300" fill="white"/>
</clipPath>
</defs>
</svg>
