<svg width="1080" height="300" viewBox="0 0 1080 300" fill="none" xmlns="http://www.w3.org/2000/svg">
<g clip-path="url(#clip0_1363_1261)">
<mask id="mask0_1363_1261" style="mask-type:luminance" maskUnits="userSpaceOnUse" x="0" y="0" width="1080" height="300">
<path d="M1080 0H0V300H1080V0Z" fill="white"/>
</mask>
<g mask="url(#mask0_1363_1261)">
<path d="M1080 0H0V300H1080V0Z" fill="white"/>
</g>
<rect width="1080" height="300" fill="url(#paint0_linear_1363_1261)"/>
<g opacity="0.52">
<mask id="mask1_1363_1261" style="mask-type:alpha" maskUnits="userSpaceOnUse" x="-13" y="0" width="1152" height="273">
<path d="M1139 251C1139 263.15 1129.15 273 1117 273H8.99998C-3.15028 273 -13 263.15 -13 251V22C-13 9.84973 -3.15026 0 9 0H1117C1129.15 0 1139 9.84974 1139 22V251Z" fill="#099FFC"/>
</mask>
<g mask="url(#mask1_1363_1261)">
<g opacity="0.45">
<path d="M247.5 252C236.754 252 226.279 249.96 216.365 245.939C206.099 241.777 196.888 235.661 188.993 227.761L-178.766 -139.989C-186.665 -147.888 -192.782 -157.095 -196.944 -167.361C-200.96 -177.279 -203 -187.754 -203 -198.5C-203 -209.246 -200.96 -219.721 -196.939 -229.635C-192.777 -239.901 -186.661 -249.112 -178.761 -257.007L188.989 -624.766C196.888 -632.665 206.095 -638.782 216.361 -642.944C226.279 -646.96 236.754 -649 247.5 -649C258.246 -649 268.721 -646.96 278.635 -642.939C288.901 -638.777 298.112 -632.661 306.007 -624.761L673.761 -257.007C681.661 -249.107 687.777 -239.901 691.939 -229.635C695.96 -219.721 698 -209.245 698 -198.5C698 -187.754 695.96 -177.279 691.939 -167.365C687.777 -157.099 681.661 -147.888 673.761 -139.993L306.007 227.761C298.107 235.661 288.901 241.777 278.635 245.939C268.721 249.96 258.246 252 247.5 252ZM247.5 -646.694C226.892 -646.694 206.284 -638.85 190.592 -623.158L-177.163 -255.408C-208.542 -224.029 -208.542 -172.971 -177.163 -141.592L190.592 226.163C221.971 257.542 273.029 257.542 304.408 226.163L672.163 -141.592C703.542 -172.971 703.542 -224.029 672.163 -255.408L304.408 -623.163C288.721 -638.85 268.108 -646.698 247.5 -646.698L247.5 -646.694Z" fill="url(#paint1_linear_1363_1261)"/>
<path d="M247.5 243.411C237.093 243.411 226.948 241.435 217.347 237.543C207.407 233.509 198.487 227.59 190.836 219.939L-170.939 -141.832C-178.59 -149.482 -184.513 -158.402 -188.542 -168.342C-192.434 -177.943 -194.41 -188.089 -194.41 -198.496C-194.41 -208.902 -192.434 -219.048 -188.542 -228.649C-184.509 -238.589 -178.59 -247.509 -170.939 -255.159L190.836 -616.939C198.487 -624.59 207.407 -630.509 217.347 -634.542C226.948 -638.434 237.093 -640.41 247.5 -640.41C257.907 -640.41 268.053 -638.434 277.654 -634.542C287.594 -630.509 296.513 -624.59 304.164 -616.939L665.935 -255.168C673.586 -247.517 679.509 -238.597 683.539 -228.658C687.43 -219.056 689.406 -208.911 689.406 -198.504C689.406 -188.097 687.43 -177.952 683.539 -168.35C679.505 -158.411 673.586 -149.491 665.935 -141.84L304.164 219.931C296.513 227.582 287.594 233.505 277.654 237.534C268.053 241.426 257.907 243.402 247.5 243.402L247.5 243.411ZM-169.336 -253.561C-199.699 -223.197 -199.699 -173.794 -169.336 -143.435L192.435 218.336C207.141 233.042 226.699 241.143 247.5 241.143C268.301 241.143 287.855 233.042 302.565 218.336L664.336 -143.435C679.042 -158.141 687.143 -177.699 687.143 -198.5C687.143 -219.301 679.042 -238.855 664.336 -253.565L302.565 -615.336C287.859 -630.042 268.301 -638.143 247.5 -638.143C226.699 -638.143 207.145 -630.042 192.435 -615.336L-169.336 -253.561Z" fill="url(#paint2_linear_1363_1261)"/>
<path d="M247.5 234.821C226.789 234.821 207.321 226.759 192.679 212.113L-163.112 -143.674C-177.754 -158.316 -185.82 -177.788 -185.82 -198.495C-185.82 -219.206 -177.758 -238.674 -163.112 -253.316L192.68 -609.112C207.321 -623.754 226.794 -631.82 247.5 -631.82C268.207 -631.82 287.68 -623.754 302.321 -609.112L658.108 -253.325C672.75 -238.683 680.817 -219.211 680.817 -198.504C680.817 -177.793 672.755 -158.325 658.108 -143.683L302.321 212.104C287.679 226.746 268.207 234.813 247.5 234.813L247.5 234.821ZM247.5 -629.514C228.225 -629.514 208.954 -622.176 194.283 -607.504L-161.509 -251.717C-175.726 -237.5 -183.553 -218.602 -183.553 -198.5C-183.553 -178.397 -175.726 -159.495 -161.509 -145.282L194.278 210.506C208.496 224.723 227.394 232.55 247.496 232.55C267.599 232.55 286.501 224.723 300.714 210.506L656.501 -145.282C670.719 -159.499 678.545 -178.397 678.545 -198.499C678.545 -218.602 670.719 -237.504 656.501 -251.717L300.718 -607.509C286.047 -622.181 266.771 -629.519 247.5 -629.519L247.5 -629.514Z" fill="url(#paint3_linear_1363_1261)"/>
<path d="M247.501 226.232C227.488 226.232 208.672 218.439 194.523 204.286L-155.285 -145.522C-169.438 -159.675 -177.231 -178.487 -177.231 -198.5C-177.231 -218.512 -169.438 -237.329 -155.285 -251.477L194.523 -601.281C208.676 -615.434 227.488 -623.227 247.501 -623.227C267.513 -623.227 286.33 -615.434 300.479 -601.281L650.282 -251.477C664.435 -237.324 672.228 -218.512 672.228 -198.5C672.228 -178.487 664.435 -159.671 650.282 -145.522L300.478 204.282C286.325 218.435 267.513 226.227 247.501 226.227L247.501 226.232ZM-153.682 -249.874C-182.01 -221.547 -182.01 -175.453 -153.682 -147.125L196.126 202.683C209.85 216.408 228.093 223.964 247.501 223.964C266.909 223.964 285.155 216.408 298.875 202.683L648.683 -147.125C662.408 -160.849 669.965 -179.091 669.965 -198.5C669.965 -217.908 662.408 -236.154 648.683 -249.874L298.876 -599.682C285.151 -613.407 266.909 -620.963 247.501 -620.963C228.093 -620.963 209.846 -613.407 196.126 -599.682L-153.682 -249.874Z" fill="url(#paint4_linear_1363_1261)"/>
<path d="M247.499 217.638C228.181 217.638 210.024 210.115 196.364 196.46L-147.46 -147.365C-161.12 -161.025 -168.643 -179.181 -168.643 -198.499C-168.643 -217.817 -161.12 -235.974 -147.46 -249.634L196.364 -593.454C210.024 -607.114 228.181 -614.637 247.499 -614.637C266.817 -614.637 284.973 -607.114 298.634 -593.454L642.458 -249.63C656.118 -235.97 663.641 -217.813 663.641 -198.495C663.641 -179.177 656.118 -161.021 642.458 -147.36L298.634 196.464C284.973 210.124 266.817 217.642 247.499 217.642L247.499 217.638ZM247.499 -612.335C229.561 -612.335 211.623 -605.507 197.967 -591.851L-145.857 -248.031C-159.089 -234.8 -166.375 -217.209 -166.375 -198.499C-166.375 -179.79 -159.089 -162.199 -145.857 -148.968L197.967 194.857C211.623 208.512 229.561 215.34 247.499 215.34C265.437 215.34 283.375 208.512 297.031 194.857L640.855 -148.968C654.087 -162.199 661.373 -179.79 661.373 -198.499C661.373 -217.209 654.087 -234.799 640.855 -248.031L297.031 -591.851C283.375 -605.507 265.437 -612.335 247.499 -612.335Z" fill="url(#paint5_linear_1363_1261)"/>
<path d="M247.5 209.048C228.881 209.048 211.376 201.796 198.209 188.633L-139.628 -149.208C-152.795 -162.375 -160.043 -179.88 -160.043 -198.5C-160.043 -217.119 -152.791 -234.624 -139.628 -247.791L198.209 -585.628C211.376 -598.795 228.881 -606.043 247.5 -606.043C266.12 -606.043 283.625 -598.791 296.792 -585.628L634.633 -247.787C647.8 -234.62 655.048 -217.115 655.048 -198.495C655.048 -179.876 647.796 -162.371 634.633 -149.204L296.792 188.637C283.625 201.804 266.12 209.052 247.5 209.052L247.5 209.048ZM247.5 -603.746C230.231 -603.746 212.962 -597.17 199.812 -584.025L-138.025 -246.188C-150.763 -233.449 -157.776 -216.515 -157.776 -198.5C-157.776 -180.485 -150.759 -163.55 -138.025 -150.811L199.816 187.03C226.112 213.326 268.897 213.326 295.193 187.03L633.034 -150.811C659.33 -177.107 659.33 -219.892 633.034 -246.184L295.189 -584.025C282.043 -597.17 264.77 -603.746 247.5 -603.746Z" fill="url(#paint6_linear_1363_1261)"/>
<path d="M247.499 200.459C229.574 200.459 212.724 193.481 200.05 180.806L-131.803 -151.051C-144.477 -163.725 -151.455 -180.574 -151.455 -198.495C-151.455 -216.416 -144.477 -233.269 -131.803 -245.944L200.054 -577.801C212.729 -590.475 229.578 -597.453 247.499 -597.453C265.424 -597.453 282.273 -590.475 294.943 -577.801L626.8 -245.944C639.475 -233.269 646.452 -216.42 646.452 -198.495C646.452 -180.57 639.475 -163.721 626.8 -151.051L294.943 180.806C282.269 193.481 265.419 200.459 247.499 200.459ZM-130.2 -244.341C-155.476 -219.06 -155.476 -177.93 -130.2 -152.654L201.657 179.203C226.938 204.483 268.068 204.479 293.344 179.203L625.201 -152.654C637.447 -164.9 644.189 -181.179 644.189 -198.499C644.189 -215.816 637.447 -232.099 625.201 -244.345L293.344 -576.198C281.099 -588.443 264.819 -595.186 247.499 -595.186C230.182 -595.186 213.899 -588.443 201.653 -576.198L-130.2 -244.341Z" fill="url(#paint7_linear_1363_1261)"/>
<path d="M247.501 191.869C230.274 191.869 214.081 185.161 201.9 172.98L-123.974 -152.894C-136.155 -165.075 -142.863 -181.268 -142.863 -198.495C-142.863 -215.721 -136.155 -231.915 -123.974 -244.096L201.9 -569.974C214.081 -582.155 230.275 -588.863 247.501 -588.863C264.727 -588.863 280.925 -582.155 293.102 -569.974L618.976 -244.1C631.157 -231.919 637.865 -215.725 637.865 -198.499C637.865 -181.273 631.157 -165.079 618.976 -152.898L293.102 172.976C280.921 185.157 264.727 191.865 247.501 191.865L247.501 191.869ZM247.501 -586.596C230.879 -586.596 215.256 -580.124 203.503 -568.371L-122.371 -242.497C-134.124 -230.744 -140.596 -215.117 -140.596 -198.499C-140.596 -181.877 -134.124 -166.254 -122.371 -154.501L203.503 171.373C215.256 183.125 230.883 189.598 247.501 189.598C264.123 189.598 279.746 183.125 291.499 171.373L617.372 -154.501C641.633 -178.761 641.633 -218.237 617.373 -242.501L291.499 -568.371C279.746 -580.124 264.119 -586.596 247.501 -586.596Z" fill="url(#paint8_linear_1363_1261)"/>
<path d="M247.501 183.274C230.969 183.274 215.432 176.836 203.743 165.147L-116.147 -154.743C-127.836 -166.431 -134.273 -181.973 -134.273 -198.501C-134.273 -215.033 -127.836 -230.57 -116.147 -242.259L203.743 -562.149C215.432 -573.837 230.973 -580.275 247.501 -580.275C264.029 -580.275 279.571 -573.837 291.259 -562.149L611.149 -242.259C622.838 -230.57 629.276 -215.028 629.276 -198.501C629.276 -181.973 622.838 -166.431 611.149 -154.743L291.259 165.147C279.571 176.836 264.029 183.274 247.501 183.274ZM-114.544 -240.656C-137.788 -217.412 -137.788 -179.59 -114.544 -156.346L205.346 163.544C216.606 174.804 231.578 181.006 247.501 181.006C263.424 181.006 278.396 174.804 289.656 163.544L609.546 -156.346C620.806 -167.606 627.008 -182.577 627.008 -198.501C627.008 -214.424 620.806 -229.396 609.546 -240.656L289.656 -560.546C278.396 -571.806 263.425 -578.008 247.501 -578.008C231.578 -578.008 216.606 -571.806 205.346 -560.546L-114.544 -240.656Z" fill="url(#paint9_linear_1363_1261)"/>
<path d="M247.499 174.684C231.666 174.684 216.78 168.521 205.584 157.325L-108.322 -156.586C-119.518 -167.781 -125.686 -182.667 -125.686 -198.501C-125.686 -214.334 -119.518 -229.22 -108.322 -240.416L205.584 -554.322C216.78 -565.518 231.666 -571.686 247.499 -571.686C263.333 -571.686 278.219 -565.518 289.414 -554.322L603.321 -240.416C614.516 -229.22 620.684 -214.334 620.684 -198.501C620.684 -182.667 614.521 -167.781 603.321 -156.586L289.414 157.321C278.219 168.516 263.333 174.68 247.499 174.68L247.499 174.684ZM247.499 -569.418C232.27 -569.418 217.954 -563.486 207.187 -552.719L-106.719 -238.813C-117.486 -228.046 -123.418 -213.73 -123.418 -198.501C-123.418 -183.272 -117.49 -168.956 -106.719 -158.189L207.187 155.718C217.954 166.485 232.27 172.417 247.499 172.417C262.728 172.417 277.044 166.489 287.811 155.718L601.718 -158.189C623.946 -180.417 623.946 -216.584 601.718 -238.813L287.811 -552.719C277.044 -563.486 262.728 -569.418 247.499 -569.418Z" fill="url(#paint10_linear_1363_1261)"/>
<path d="M247.499 166.095C232.365 166.095 218.13 160.201 207.427 149.498L-100.496 -158.429C-111.198 -169.131 -117.092 -183.362 -117.092 -198.501C-117.092 -213.635 -111.198 -227.87 -100.496 -238.573L207.427 -546.495C218.13 -557.198 232.36 -563.092 247.499 -563.092C262.634 -563.092 276.869 -557.198 287.571 -546.495L595.498 -238.568C606.201 -227.866 612.095 -213.635 612.095 -198.496C612.095 -183.362 606.201 -169.127 595.498 -158.424L287.571 149.503C276.869 160.205 262.638 166.099 247.499 166.099L247.499 166.095ZM-98.8925 -236.97C-120.105 -215.757 -120.105 -181.244 -98.8925 -160.036L209.035 147.891C219.309 158.165 232.973 163.823 247.504 163.823C262.034 163.823 275.694 158.165 285.972 147.891L593.9 -160.036C615.112 -181.249 615.112 -215.761 593.9 -236.97L285.968 -544.892C264.756 -566.105 230.243 -566.105 209.035 -544.892L-98.8925 -236.97Z" fill="url(#paint11_linear_1363_1261)"/>
<path d="M247.501 157.505C233.061 157.505 219.487 151.882 209.277 141.672L-92.6667 -160.272C-102.876 -170.481 -108.5 -184.056 -108.5 -198.496C-108.5 -212.936 -102.876 -226.511 -92.6667 -236.721L209.277 -538.669C219.487 -548.878 233.065 -554.502 247.506 -554.502C261.946 -554.502 275.521 -548.878 285.73 -538.669L587.674 -236.725C597.884 -226.515 603.507 -212.941 603.507 -198.5C603.507 -184.06 597.884 -170.486 587.674 -160.276L285.73 141.668C275.52 151.877 261.946 157.501 247.506 157.501L247.501 157.505ZM-91.0636 -235.122C-111.256 -214.93 -111.256 -182.067 -91.0637 -161.875L210.88 140.069C220.974 150.163 234.244 155.212 247.506 155.216C260.772 155.216 274.029 150.167 284.127 140.069L586.071 -161.875C595.852 -171.656 601.24 -184.664 601.24 -198.496C601.24 -212.328 595.852 -225.337 586.071 -235.118L284.127 -537.061C263.935 -557.254 231.077 -557.254 210.88 -537.061L-91.0636 -235.122Z" fill="url(#paint12_linear_1363_1261)"/>
<path d="M247.5 148.912C233.758 148.912 220.835 143.558 211.118 133.841L-84.8417 -162.119C-94.5586 -171.836 -99.9121 -184.759 -99.9121 -198.5C-99.9121 -212.242 -94.5586 -225.165 -84.8417 -234.882L211.118 -530.842C220.835 -540.559 233.758 -545.912 247.5 -545.912C261.241 -545.912 274.164 -540.559 283.881 -530.842L579.841 -234.882C589.558 -225.165 594.912 -212.242 594.912 -198.5C594.912 -184.758 589.558 -171.836 579.841 -162.119L283.881 133.841C274.164 143.558 261.241 148.912 247.5 148.912ZM-83.2387 -233.279C-102.415 -214.102 -102.415 -182.898 -83.2387 -163.717L212.721 132.243C222.01 141.531 234.362 146.649 247.5 146.649C260.637 146.649 272.99 141.531 282.278 132.243L578.238 -163.717C597.415 -182.894 597.415 -214.098 578.238 -233.279L282.278 -529.239C272.99 -538.527 260.637 -543.645 247.5 -543.645C234.362 -543.645 222.01 -538.527 212.721 -529.239L-83.2387 -233.279Z" fill="url(#paint13_linear_1363_1261)"/>
<path d="M247.5 140.322C234.453 140.322 222.185 135.243 212.962 126.015L-77.0149 -163.962C-86.2388 -173.186 -91.3223 -185.453 -91.3223 -198.5C-91.3223 -211.547 -86.2431 -223.814 -77.0149 -233.038L212.962 -523.015C222.186 -532.239 234.453 -537.322 247.5 -537.322C260.547 -537.322 272.814 -532.243 282.038 -523.015L572.015 -233.038C581.239 -223.814 586.322 -211.547 586.322 -198.5C586.322 -185.453 581.243 -173.185 572.015 -163.961L282.038 126.015C272.814 135.239 260.547 140.322 247.5 140.322ZM-75.4118 -231.435C-84.2071 -222.64 -89.0549 -210.943 -89.0549 -198.5C-89.0549 -186.057 -84.2114 -174.36 -75.4118 -165.565L214.565 124.412C223.364 133.207 235.057 138.055 247.5 138.055C259.943 138.055 271.64 133.211 280.435 124.412L570.412 -165.565C579.207 -174.364 584.055 -186.057 584.055 -198.5C584.055 -210.943 579.211 -222.64 570.412 -231.435L280.435 -521.412C271.636 -530.207 259.943 -535.055 247.5 -535.055C235.057 -535.055 223.36 -530.211 214.565 -521.412L-75.4118 -231.435Z" fill="url(#paint14_linear_1363_1261)"/>
<path d="M247.5 131.711C235.662 131.711 223.819 127.202 214.805 118.193L-69.188 -165.8C-77.9233 -174.531 -82.7325 -186.143 -82.7325 -198.495C-82.7324 -210.844 -77.9233 -222.455 -69.188 -231.191L214.805 -515.188C223.536 -523.919 235.147 -528.732 247.5 -528.732C259.853 -528.732 271.46 -523.923 280.196 -515.188L564.188 -231.195C582.216 -213.167 582.216 -183.832 564.188 -165.804L280.196 118.188C271.182 127.202 259.343 131.707 247.5 131.707L247.5 131.711ZM247.5 -526.465C235.756 -526.465 224.715 -521.892 216.408 -513.585L-67.5849 -229.592C-75.8916 -221.285 -80.465 -210.244 -80.465 -198.5C-80.465 -186.755 -75.8916 -175.714 -67.5849 -167.407L216.408 116.585C233.553 133.73 261.448 133.73 278.592 116.585L562.585 -167.407C579.73 -184.552 579.73 -212.447 562.585 -229.592L278.593 -513.585C270.286 -521.892 259.245 -526.465 247.5 -526.465Z" fill="url(#paint15_linear_1363_1261)"/>
<path d="M247.499 123.121C236.325 123.121 225.155 118.869 216.647 110.361L-61.3621 -167.648C-78.3741 -184.66 -78.3741 -212.336 -61.3621 -229.349L216.651 -507.362C233.664 -524.374 261.34 -524.374 278.352 -507.362L556.361 -229.353C564.603 -221.11 569.138 -210.155 569.138 -198.5C569.138 -186.846 564.599 -175.891 556.361 -167.648L278.352 110.361C269.848 118.865 258.674 123.121 247.499 123.121ZM-59.759 -227.746C-75.8881 -211.616 -75.8881 -185.376 -59.759 -169.251L218.25 108.758C234.379 124.883 260.62 124.887 276.744 108.758L554.754 -169.251C570.883 -185.38 570.883 -211.621 554.754 -227.745L276.744 -505.755C260.615 -521.884 234.375 -521.884 218.25 -505.755L-59.759 -227.746Z" fill="url(#paint16_linear_1363_1261)"/>
<path d="M247.501 114.549C236.545 114.549 226.241 110.28 218.496 102.535L-53.5341 -169.495C-69.5303 -185.491 -69.5303 -211.513 -53.5341 -227.509L218.496 -499.534C226.245 -507.284 236.545 -511.549 247.501 -511.549C258.456 -511.549 268.76 -507.284 276.506 -499.534L548.536 -227.505C564.532 -211.508 564.532 -185.487 548.536 -169.49L276.506 102.539C268.756 110.289 258.456 114.554 247.501 114.554L247.501 114.549ZM-51.9311 -225.902C-67.04 -210.793 -67.04 -186.202 -51.9311 -171.094L220.099 100.936C235.208 116.045 259.798 116.045 274.907 100.936L546.937 -171.093C562.046 -186.202 562.046 -210.793 546.937 -225.901L274.907 -497.931C259.798 -513.04 235.212 -513.04 220.099 -497.931L-51.9311 -225.902Z" fill="url(#paint17_linear_1363_1261)"/>
<path d="M247.501 105.96C237.239 105.96 227.595 101.966 220.339 94.709L-45.7077 -171.337C-52.9642 -178.594 -56.959 -188.238 -56.959 -198.499C-56.959 -208.76 -52.9642 -218.409 -45.7077 -225.661L220.339 -491.707C235.315 -506.683 259.686 -506.683 274.662 -491.707L540.709 -225.661C547.965 -218.404 551.96 -208.76 551.96 -198.499C551.96 -188.238 547.965 -178.594 540.709 -171.337L274.662 94.709C267.406 101.966 257.762 105.96 247.501 105.96ZM247.501 -500.691C237.844 -500.691 228.77 -496.932 221.942 -490.104L-44.1046 -224.058C-50.9326 -217.23 -54.6916 -208.152 -54.6916 -198.499C-54.6916 -188.842 -50.9326 -179.768 -44.1046 -172.94L221.942 93.106C236.035 107.199 258.966 107.199 273.059 93.106L539.106 -172.94C553.199 -187.033 553.199 -209.965 539.106 -224.058L273.059 -490.104C266.231 -496.932 257.153 -500.691 247.501 -500.691Z" fill="url(#paint18_linear_1363_1261)"/>
<path d="M247.501 97.353C238.333 97.353 229.164 93.864 222.182 86.8817L-37.8808 -173.181C-44.6444 -179.945 -48.3692 -188.937 -48.3692 -198.5C-48.3692 -208.062 -44.6444 -217.055 -37.8808 -223.819L222.182 -483.881C236.142 -497.842 258.859 -497.842 272.82 -483.881L532.882 -223.819C539.646 -217.055 543.371 -208.062 543.371 -198.5C543.371 -188.937 539.646 -179.945 532.882 -173.181L272.82 86.8817C265.837 93.864 256.669 97.353 247.501 97.353ZM247.501 -492.102C238.543 -492.102 230.12 -488.613 223.785 -482.278L-36.2777 -222.216C-42.6128 -215.88 -46.1018 -207.458 -46.1018 -198.5C-46.1018 -189.542 -42.6128 -181.119 -36.2777 -174.784L223.785 85.2787C230.12 91.6137 238.543 95.1027 247.501 95.1027C256.459 95.1027 264.881 91.6137 271.216 85.2787L531.279 -174.784C537.614 -181.119 541.103 -189.542 541.103 -198.5C541.103 -207.458 537.614 -215.88 531.279 -222.215L271.217 -482.278C264.881 -488.613 256.459 -492.102 247.501 -492.102Z" fill="url(#paint19_linear_1363_1261)"/>
<path d="M247.499 88.7627C239 88.7627 230.496 85.5266 224.024 79.0544L-30.0554 -175.025C-42.9998 -187.969 -42.9998 -209.032 -30.0554 -221.976L224.024 -476.055C236.968 -489 258.031 -489 270.975 -476.055L525.054 -221.976C537.999 -209.032 537.999 -187.969 525.054 -175.025L270.975 79.0544C264.503 85.5266 256.003 88.7627 247.499 88.7627ZM247.5 -483.496C239.579 -483.496 231.658 -480.483 225.627 -474.452L-28.4523 -220.373C-34.2945 -214.531 -37.5134 -206.764 -37.5134 -198.5C-37.5134 -190.237 -34.2945 -182.47 -28.4523 -176.628L225.627 77.4513C231.469 83.2935 239.236 86.5124 247.499 86.5124C255.763 86.5124 263.53 83.2935 269.372 77.4513L523.451 -176.628C529.293 -182.47 532.512 -190.237 532.512 -198.5C532.512 -206.764 529.293 -214.531 523.451 -220.373L269.372 -474.452C263.341 -480.483 255.42 -483.496 247.5 -483.496Z" fill="url(#paint20_linear_1363_1261)"/>
<path d="M247.501 80.1745C239.666 80.1745 231.835 77.1913 225.868 71.2291L-22.2274 -176.867C-28.0052 -182.644 -31.1856 -190.325 -31.1856 -198.499C-31.1856 -206.669 -28.0052 -214.354 -22.2273 -220.132L225.873 -468.227C237.801 -480.156 257.209 -480.156 269.134 -468.227L517.229 -220.132C529.158 -208.203 529.158 -188.799 517.229 -176.871L269.133 71.2248C263.171 77.187 255.336 80.1702 247.501 80.1702L247.501 80.1745ZM247.501 -474.905C240.249 -474.905 232.996 -472.145 227.471 -466.624L-20.6243 -218.524C-25.9735 -213.175 -28.9182 -206.06 -28.9182 -198.495C-28.9182 -190.93 -25.9735 -183.819 -20.6243 -178.465L227.471 69.6304C238.517 80.676 256.485 80.6717 267.526 69.6304L515.622 -178.465C526.663 -189.511 526.663 -207.479 515.622 -218.52L267.526 -466.616C262.006 -472.136 254.753 -474.897 247.497 -474.897L247.501 -474.905Z" fill="url(#paint21_linear_1363_1261)"/>
<path d="M247.501 71.596C240.025 71.596 233 68.6857 227.715 63.4008L-14.3968 -178.711C-25.3053 -189.62 -25.3053 -207.373 -14.3968 -218.286L227.715 -460.402C233 -465.687 240.025 -468.598 247.501 -468.598C254.976 -468.598 262.001 -465.687 267.286 -460.402L509.398 -218.29C514.683 -213.005 517.593 -205.976 517.593 -198.505C517.593 -191.03 514.683 -184.005 509.398 -178.72L267.286 63.3922C262.001 68.6772 254.971 71.5875 247.501 71.5875L247.501 71.596ZM-12.798 -216.683C-22.8235 -206.658 -22.8235 -190.34 -12.798 -180.314L229.314 61.7977C234.17 66.654 240.63 69.3287 247.496 69.3287C254.367 69.3287 260.822 66.654 265.678 61.7977L507.791 -180.314C512.647 -185.171 515.321 -191.63 515.321 -198.496C515.321 -205.367 512.647 -211.822 507.791 -216.679L265.678 -458.791C260.822 -463.647 254.363 -466.322 247.496 -466.322C240.63 -466.322 234.17 -463.647 229.314 -458.791L-12.798 -216.683Z" fill="url(#paint22_linear_1363_1261)"/>
</g>
</g>
</g>
<g opacity="0.72">
<mask id="mask2_1363_1261" style="mask-type:alpha" maskUnits="userSpaceOnUse" x="-47" y="27" width="1152" height="273">
<path d="M-47 49C-47 36.8497 -37.1503 27 -25 27H1083C1095.15 27 1105 36.8497 1105 49V278C1105 290.15 1095.15 300 1083 300H-25C-37.1503 300 -47 290.15 -47 278V49Z" fill="#099FFC"/>
</mask>
<g mask="url(#mask2_1363_1261)">
<g opacity="0.45">
<path d="M844.5 47.9999C855.246 47.9999 865.721 50.0402 875.635 54.0607C885.901 58.2226 895.112 64.3391 903.007 72.2386L1270.77 439.989C1278.67 447.888 1284.78 457.095 1288.94 467.361C1292.96 477.279 1295 487.754 1295 498.5C1295 509.246 1292.96 519.721 1288.94 529.635C1284.78 539.901 1278.66 549.112 1270.76 557.007L903.011 924.766C895.112 932.665 885.905 938.782 875.639 942.944C865.721 946.96 855.246 949 844.5 949C833.754 949 823.279 946.96 813.365 942.939C803.099 938.777 793.888 932.661 785.993 924.761L418.239 557.007C410.339 549.107 404.223 539.901 400.061 529.635C396.04 519.721 394 509.245 394 498.5C394 487.754 396.04 477.279 400.061 467.365C404.223 457.099 410.339 447.888 418.239 439.993L785.993 72.2386C793.893 64.3391 803.099 58.2226 813.365 54.0607C823.279 50.0402 833.754 47.9999 844.5 47.9999ZM844.5 946.694C865.108 946.694 885.716 938.85 901.408 923.158L1269.16 555.408C1300.54 524.029 1300.54 472.971 1269.16 441.592L901.408 73.8373C870.029 42.4578 818.971 42.4578 787.592 73.8373L419.837 441.592C388.458 472.971 388.458 524.029 419.837 555.408L787.592 923.163C803.279 938.85 823.892 946.698 844.5 946.698L844.5 946.694Z" fill="url(#paint23_linear_1363_1261)"/>
<path d="M844.5 56.5894C854.907 56.5894 865.052 58.5653 874.653 62.4572C884.593 66.4906 893.513 72.4099 901.164 80.0608L1262.94 441.832C1270.59 449.482 1276.51 458.402 1280.54 468.342C1284.43 477.943 1286.41 488.089 1286.41 498.496C1286.41 508.902 1284.43 519.048 1280.54 528.649C1276.51 538.589 1270.59 547.509 1262.94 555.159L901.164 916.939C893.513 924.59 884.593 930.509 874.653 934.542C865.052 938.434 854.907 940.41 844.5 940.41C834.093 940.41 823.947 938.434 814.346 934.542C804.406 930.509 795.487 924.59 787.836 916.939L426.065 555.168C418.414 547.517 412.491 538.597 408.461 528.658C404.57 519.056 402.594 508.911 402.594 498.504C402.594 488.097 404.57 477.952 408.461 468.35C412.495 458.411 418.414 449.491 426.065 441.84L787.836 80.0694C795.487 72.4184 804.406 66.4948 814.346 62.4658C823.947 58.5739 834.093 56.598 844.5 56.598L844.5 56.5894ZM1261.34 553.561C1291.7 523.197 1291.7 473.794 1261.34 443.435L899.565 81.6638C884.859 66.9578 865.301 58.8568 844.5 58.8568C823.699 58.8568 804.145 66.9578 789.435 81.6638L427.664 443.435C412.958 458.141 404.857 477.699 404.857 498.5C404.857 519.301 412.958 538.855 427.664 553.565L789.435 915.336C804.141 930.042 823.699 938.143 844.5 938.143C865.301 938.143 884.855 930.042 899.565 915.336L1261.34 553.561Z" fill="url(#paint24_linear_1363_1261)"/>
<path d="M844.5 65.1787C865.211 65.1787 884.679 73.2411 899.321 87.8871L1255.11 443.674C1269.75 458.316 1277.82 477.788 1277.82 498.495C1277.82 519.206 1269.76 538.674 1255.11 553.316L899.32 909.112C884.679 923.754 865.206 931.82 844.5 931.82C823.793 931.82 804.32 923.754 789.679 909.112L433.892 553.325C419.25 538.683 411.183 519.211 411.183 498.504C411.183 477.793 419.245 458.325 433.892 443.683L789.679 87.8957C804.321 73.2539 823.793 65.1873 844.5 65.1873L844.5 65.1787ZM844.5 929.514C863.775 929.514 883.046 922.176 897.717 907.504L1253.51 551.717C1267.73 537.5 1275.55 518.602 1275.55 498.5C1275.55 478.397 1267.73 459.495 1253.51 445.282L897.722 89.4945C883.504 75.277 864.606 67.4504 844.504 67.4504C824.401 67.4504 805.499 75.277 791.286 89.4945L435.499 445.282C421.281 459.499 413.455 478.397 413.455 498.499C413.455 518.602 421.281 537.504 435.499 551.717L791.282 907.509C805.953 922.181 825.229 929.519 844.5 929.519L844.5 929.514Z" fill="url(#paint25_linear_1363_1261)"/>
<path d="M844.499 73.7684C864.512 73.7684 883.328 81.5608 897.477 95.7139L1247.29 445.522C1261.44 459.675 1269.23 478.487 1269.23 498.5C1269.23 518.512 1261.44 537.329 1247.28 551.477L897.477 901.281C883.324 915.434 864.512 923.227 844.499 923.227C824.487 923.227 805.67 915.434 791.521 901.281L441.718 551.477C427.565 537.324 419.772 518.512 419.772 498.5C419.772 478.487 427.565 459.671 441.718 445.522L791.522 95.7182C805.675 81.565 824.487 73.7727 844.499 73.7727L844.499 73.7684ZM1245.68 549.874C1274.01 521.547 1274.01 475.453 1245.68 447.125L895.874 97.3169C882.15 83.5924 863.907 76.0358 844.499 76.0358C825.091 76.0358 806.845 83.5924 793.125 97.3169L443.317 447.125C429.592 460.849 422.035 479.091 422.035 498.5C422.035 517.908 429.592 536.154 443.317 549.874L793.124 899.682C806.849 913.407 825.091 920.963 844.499 920.963C863.907 920.963 882.154 913.407 895.874 899.682L1245.68 549.874Z" fill="url(#paint26_linear_1363_1261)"/>
<path d="M844.501 82.3622C863.819 82.3622 881.976 89.8845 895.636 103.54L1239.46 447.365C1253.12 461.025 1260.64 479.181 1260.64 498.499C1260.64 517.817 1253.12 535.974 1239.46 549.634L895.636 893.454C881.976 907.114 863.819 914.637 844.501 914.637C825.183 914.637 807.027 907.114 793.366 893.454L449.542 549.63C435.882 535.97 428.359 517.813 428.359 498.495C428.359 479.177 435.882 461.021 449.542 447.36L793.366 103.536C807.027 89.8759 825.183 82.3579 844.501 82.3579L844.501 82.3622ZM844.501 912.335C862.439 912.335 880.377 905.507 894.033 891.851L1237.86 548.031C1251.09 534.8 1258.38 517.209 1258.38 498.499C1258.38 479.79 1251.09 462.199 1237.86 448.968L894.033 105.143C880.377 91.4876 862.439 84.6596 844.501 84.6596C826.563 84.6596 808.625 91.4876 794.969 105.143L451.145 448.968C437.913 462.199 430.627 479.79 430.627 498.499C430.627 517.209 437.913 534.799 451.145 548.031L794.969 891.851C808.625 905.507 826.563 912.335 844.501 912.335Z" fill="url(#paint27_linear_1363_1261)"/>
<path d="M844.5 90.9518C863.119 90.9518 880.624 98.2042 893.791 111.367L1231.63 449.208C1244.79 462.375 1252.04 479.88 1252.04 498.5C1252.04 517.119 1244.79 534.624 1231.63 547.791L893.791 885.628C880.624 898.795 863.119 906.043 844.5 906.043C825.88 906.043 808.375 898.791 795.208 885.628L457.367 547.787C444.2 534.62 436.952 517.115 436.952 498.495C436.952 479.876 444.204 462.371 457.367 449.204L795.208 111.363C808.375 98.1956 825.88 90.9476 844.5 90.9476L844.5 90.9518ZM844.5 903.746C861.769 903.746 879.038 897.17 892.188 884.025L1230.02 546.188C1242.76 533.449 1249.78 516.515 1249.78 498.5C1249.78 480.485 1242.76 463.55 1230.02 450.811L892.184 112.97C865.888 86.6742 823.103 86.6742 796.807 112.97L458.966 450.811C432.67 477.107 432.67 519.892 458.966 546.184L796.811 884.025C809.957 897.17 827.23 903.746 844.5 903.746Z" fill="url(#paint28_linear_1363_1261)"/>
<path d="M844.501 99.5413C862.426 99.5413 879.276 106.519 891.95 119.194L1223.8 451.051C1236.48 463.725 1243.46 480.574 1243.46 498.495C1243.46 516.416 1236.48 533.269 1223.8 545.944L891.946 877.801C879.271 890.475 862.422 897.453 844.501 897.453C826.576 897.453 809.727 890.475 797.057 877.801L465.2 545.944C452.525 533.269 445.548 516.42 445.548 498.495C445.548 480.57 452.525 463.721 465.2 451.051L797.057 119.194C809.731 106.519 826.581 99.5413 844.501 99.5413ZM1222.2 544.341C1247.48 519.06 1247.48 477.93 1222.2 452.654L890.343 120.797C865.062 95.5165 823.932 95.5208 798.656 120.797L466.799 452.654C454.553 464.9 447.811 481.179 447.811 498.499C447.811 515.816 454.553 532.099 466.799 544.345L798.656 876.198C810.901 888.443 827.181 895.186 844.501 895.186C861.818 895.186 878.101 888.443 890.347 876.198L1222.2 544.341Z" fill="url(#paint29_linear_1363_1261)"/>
<path d="M844.499 108.131C861.726 108.131 877.919 114.839 890.1 127.02L1215.97 452.894C1228.16 465.075 1234.86 481.268 1234.86 498.495C1234.86 515.721 1228.16 531.915 1215.97 544.096L890.1 869.974C877.919 882.155 861.725 888.863 844.499 888.863C827.273 888.863 811.075 882.155 798.898 869.974L473.024 544.1C460.843 531.919 454.135 515.725 454.135 498.499C454.135 481.273 460.843 465.079 473.024 452.898L798.898 127.024C811.079 114.843 827.273 108.135 844.499 108.135L844.499 108.131ZM844.499 886.596C861.121 886.596 876.744 880.124 888.497 868.371L1214.37 542.497C1226.12 530.744 1232.6 515.117 1232.6 498.499C1232.6 481.877 1226.12 466.254 1214.37 454.501L888.497 128.627C876.744 116.875 861.117 110.402 844.499 110.402C827.877 110.402 812.254 116.875 800.501 128.627L474.628 454.501C450.367 478.761 450.367 518.237 474.627 542.501L800.501 868.371C812.254 880.124 827.881 886.596 844.499 886.596Z" fill="url(#paint30_linear_1363_1261)"/>
<path d="M844.499 116.726C861.031 116.726 876.568 123.164 888.257 134.853L1208.15 454.743C1219.84 466.431 1226.27 481.973 1226.27 498.501C1226.27 515.033 1219.84 530.57 1208.15 542.259L888.257 862.149C876.568 873.837 861.027 880.275 844.499 880.275C827.971 880.275 812.429 873.837 800.741 862.149L480.851 542.259C469.162 530.57 462.724 515.028 462.724 498.501C462.724 481.973 469.162 466.431 480.851 454.743L800.741 134.853C812.429 123.164 827.971 116.726 844.499 116.726ZM1206.54 540.656C1229.79 517.412 1229.79 479.59 1206.54 456.346L886.654 136.456C875.394 125.196 860.422 118.994 844.499 118.994C828.576 118.994 813.604 125.196 802.344 136.456L482.454 456.346C471.194 467.606 464.992 482.577 464.992 498.501C464.992 514.424 471.194 529.396 482.454 540.656L802.344 860.546C813.604 871.806 828.575 878.008 844.499 878.008C860.422 878.008 875.394 871.806 886.654 860.546L1206.54 540.656Z" fill="url(#paint31_linear_1363_1261)"/>
<path d="M844.501 125.316C860.334 125.316 875.22 131.479 886.416 142.675L1200.32 456.586C1211.52 467.781 1217.69 482.667 1217.69 498.501C1217.69 514.334 1211.52 529.22 1200.32 540.416L886.416 854.322C875.22 865.518 860.334 871.686 844.501 871.686C828.667 871.686 813.781 865.518 802.586 854.322L488.679 540.416C477.484 529.22 471.316 514.334 471.316 498.501C471.316 482.667 477.479 467.781 488.679 456.586L802.586 142.679C813.781 131.484 828.667 125.32 844.501 125.32L844.501 125.316ZM844.501 869.418C859.73 869.418 874.046 863.486 884.813 852.719L1198.72 538.813C1209.49 528.046 1215.42 513.73 1215.42 498.501C1215.42 483.272 1209.49 468.956 1198.72 458.189L884.813 144.282C874.046 133.515 859.73 127.583 844.501 127.583C829.272 127.583 814.956 133.511 804.189 144.282L490.282 458.189C468.054 480.417 468.054 516.584 490.282 538.813L804.189 852.719C814.956 863.486 829.272 869.418 844.501 869.418Z" fill="url(#paint32_linear_1363_1261)"/>
<path d="M844.501 133.905C859.635 133.905 873.87 139.799 884.573 150.502L1192.5 458.429C1203.2 469.131 1209.09 483.362 1209.09 498.501C1209.09 513.635 1203.2 527.87 1192.5 538.573L884.573 846.495C873.87 857.198 859.64 863.092 844.501 863.092C829.366 863.092 815.131 857.198 804.429 846.495L496.502 538.568C485.799 527.866 479.905 513.635 479.905 498.496C479.905 483.362 485.799 469.127 496.502 458.424L804.429 150.497C815.131 139.795 829.362 133.901 844.501 133.901L844.501 133.905ZM1190.89 536.97C1212.11 515.757 1212.11 481.244 1190.89 460.036L882.965 152.109C872.691 141.835 859.027 136.177 844.496 136.177C829.966 136.177 816.306 141.835 806.028 152.109L498.1 460.036C476.888 481.249 476.888 515.761 498.1 536.97L806.032 844.892C827.244 866.105 861.757 866.105 882.965 844.892L1190.89 536.97Z" fill="url(#paint33_linear_1363_1261)"/>
<path d="M844.499 142.495C858.939 142.495 872.513 148.118 882.723 158.328L1184.67 460.272C1194.88 470.481 1200.5 484.056 1200.5 498.496C1200.5 512.936 1194.88 526.511 1184.67 536.721L882.723 838.669C872.513 848.878 858.935 854.502 844.494 854.502C830.054 854.502 816.479 848.878 806.27 838.669L504.326 536.725C494.116 526.515 488.493 512.941 488.493 498.5C488.493 484.06 494.116 470.486 504.326 460.276L806.27 158.332C816.48 148.123 830.054 142.499 844.494 142.499L844.499 142.495ZM1183.06 535.122C1203.26 514.93 1203.26 482.067 1183.06 461.875L881.12 159.931C871.026 149.837 857.756 144.788 844.494 144.784C831.228 144.784 817.971 149.833 807.873 159.931L505.929 461.875C496.148 471.656 490.76 484.664 490.76 498.496C490.76 512.328 496.148 525.337 505.929 535.118L807.873 837.061C828.065 857.254 860.923 857.254 881.12 837.061L1183.06 535.122Z" fill="url(#paint34_linear_1363_1261)"/>
<path d="M844.5 151.088C858.242 151.088 871.165 156.442 880.882 166.159L1176.84 462.119C1186.56 471.836 1191.91 484.759 1191.91 498.5C1191.91 512.242 1186.56 525.165 1176.84 534.882L880.882 830.842C871.165 840.559 858.242 845.912 844.5 845.912C830.759 845.912 817.836 840.559 808.119 830.842L512.159 534.882C502.442 525.165 497.088 512.242 497.088 498.5C497.088 484.758 502.442 471.836 512.159 462.119L808.119 166.159C817.836 156.442 830.759 151.088 844.5 151.088ZM1175.24 533.279C1194.42 514.102 1194.42 482.898 1175.24 463.717L879.279 167.757C869.99 158.469 857.638 153.351 844.5 153.351C831.363 153.351 819.01 158.469 809.722 167.757L513.762 463.717C494.585 482.894 494.585 514.098 513.762 533.279L809.722 829.239C819.01 838.527 831.363 843.645 844.5 843.645C857.638 843.645 869.99 838.527 879.279 829.239L1175.24 533.279Z" fill="url(#paint35_linear_1363_1261)"/>
<path d="M844.5 159.678C857.547 159.678 869.815 164.757 879.038 173.985L1169.01 463.962C1178.24 473.186 1183.32 485.453 1183.32 498.5C1183.32 511.547 1178.24 523.814 1169.01 533.038L879.038 823.015C869.814 832.239 857.547 837.322 844.5 837.322C831.453 837.322 819.186 832.243 809.962 823.015L519.985 533.038C510.761 523.814 505.678 511.547 505.678 498.5C505.678 485.453 510.757 473.185 519.985 463.961L809.962 173.985C819.186 164.761 831.453 159.678 844.5 159.678ZM1167.41 531.435C1176.21 522.64 1181.05 510.943 1181.05 498.5C1181.05 486.057 1176.21 474.36 1167.41 465.565L877.435 175.588C868.636 166.793 856.943 161.945 844.5 161.945C832.057 161.945 820.36 166.789 811.565 175.588L521.588 465.565C512.793 474.364 507.945 486.057 507.945 498.5C507.945 510.943 512.789 522.64 521.588 531.435L811.565 821.412C820.364 830.207 832.057 835.055 844.5 835.055C856.943 835.055 868.64 830.211 877.435 821.412L1167.41 531.435Z" fill="url(#paint36_linear_1363_1261)"/>
<path d="M844.5 168.289C856.338 168.289 868.181 172.798 877.195 181.807L1161.19 465.8C1169.92 474.531 1174.73 486.143 1174.73 498.495C1174.73 510.844 1169.92 522.455 1161.19 531.191L877.195 815.188C868.464 823.919 856.853 828.732 844.5 828.732C832.147 828.732 820.54 823.923 811.804 815.188L527.812 531.195C509.784 513.167 509.784 483.832 527.812 465.804L811.804 181.812C820.818 172.798 832.657 168.293 844.5 168.293L844.5 168.289ZM844.5 826.465C856.244 826.465 867.285 821.892 875.592 813.585L1159.58 529.592C1167.89 521.285 1172.47 510.244 1172.47 498.5C1172.47 486.755 1167.89 475.714 1159.58 467.407L875.592 183.415C858.447 166.27 830.552 166.27 813.408 183.415L529.415 467.407C512.27 484.552 512.27 512.447 529.415 529.592L813.407 813.585C821.714 821.892 832.755 826.465 844.5 826.465Z" fill="url(#paint37_linear_1363_1261)"/>
<path d="M844.501 176.879C855.675 176.879 866.845 181.131 875.353 189.639L1153.36 467.648C1170.37 484.66 1170.37 512.336 1153.36 529.349L875.349 807.362C858.336 824.374 830.66 824.374 813.648 807.362L535.639 529.353C527.397 521.11 522.862 510.155 522.862 498.5C522.862 486.846 527.401 475.891 535.639 467.648L813.648 189.639C822.152 181.135 833.326 176.879 844.501 176.879ZM1151.76 527.746C1167.89 511.616 1167.89 485.376 1151.76 469.251L873.75 191.242C857.621 175.117 831.38 175.113 815.256 191.242L537.246 469.251C521.117 485.38 521.117 511.621 537.246 527.745L815.256 805.755C831.385 821.884 857.625 821.884 873.75 805.755L1151.76 527.746Z" fill="url(#paint38_linear_1363_1261)"/>
<path d="M844.499 185.451C855.455 185.451 865.759 189.72 873.504 197.465L1145.53 469.495C1161.53 485.491 1161.53 511.513 1145.53 527.509L873.504 799.534C865.755 807.284 855.455 811.549 844.499 811.549C833.544 811.549 823.24 807.284 815.494 799.534L543.464 527.505C527.468 511.508 527.468 485.487 543.464 469.49L815.494 197.461C823.244 189.711 833.544 185.446 844.499 185.446L844.499 185.451ZM1143.93 525.902C1159.04 510.793 1159.04 486.202 1143.93 471.094L871.901 199.064C856.792 183.955 832.202 183.955 817.093 199.064L545.063 471.093C529.954 486.202 529.954 510.793 545.063 525.901L817.093 797.931C832.202 813.04 856.788 813.04 871.901 797.931L1143.93 525.902Z" fill="url(#paint39_linear_1363_1261)"/>
<path d="M844.499 194.04C854.761 194.04 864.405 198.034 871.661 205.291L1137.71 471.337C1144.96 478.594 1148.96 488.238 1148.96 498.499C1148.96 508.76 1144.96 518.409 1137.71 525.661L871.661 791.707C856.685 806.683 832.314 806.683 817.338 791.707L551.291 525.661C544.035 518.404 540.04 508.76 540.04 498.499C540.04 488.238 544.035 478.594 551.291 471.337L817.338 205.291C824.594 198.034 834.238 194.04 844.499 194.04ZM844.499 800.691C854.156 800.691 863.23 796.932 870.058 790.104L1136.1 524.058C1142.93 517.23 1146.69 508.152 1146.69 498.499C1146.69 488.842 1142.93 479.768 1136.1 472.94L870.058 206.894C855.965 192.801 833.034 192.801 818.941 206.894L552.894 472.94C538.801 487.033 538.801 509.965 552.894 524.058L818.941 790.104C825.769 796.932 834.847 800.691 844.499 800.691Z" fill="url(#paint40_linear_1363_1261)"/>
<path d="M844.499 202.647C853.667 202.647 862.836 206.136 869.818 213.118L1129.88 473.181C1136.64 479.945 1140.37 488.937 1140.37 498.5C1140.37 508.062 1136.64 517.055 1129.88 523.819L869.818 783.881C855.858 797.842 833.141 797.842 819.18 783.881L559.118 523.819C552.354 517.055 548.629 508.062 548.629 498.5C548.629 488.937 552.354 479.945 559.118 473.181L819.18 213.118C826.163 206.136 835.331 202.647 844.499 202.647ZM844.499 792.102C853.457 792.102 861.88 788.613 868.215 782.278L1128.28 522.216C1134.61 515.88 1138.1 507.458 1138.1 498.5C1138.1 489.542 1134.61 481.119 1128.28 474.784L868.215 214.721C861.88 208.386 853.457 204.897 844.499 204.897C835.541 204.897 827.119 208.386 820.784 214.721L560.721 474.784C554.386 481.119 550.897 489.542 550.897 498.5C550.897 507.458 554.386 515.88 560.721 522.215L820.783 782.278C827.119 788.613 835.541 792.102 844.499 792.102Z" fill="url(#paint41_linear_1363_1261)"/>
<path d="M844.501 211.237C853 211.237 861.504 214.473 867.976 220.946L1122.06 475.025C1135 487.969 1135 509.032 1122.06 521.976L867.976 776.055C855.032 789 833.969 789 821.025 776.055L566.946 521.976C554.001 509.032 554.001 487.969 566.946 475.025L821.025 220.946C827.497 214.473 835.997 211.237 844.501 211.237ZM844.5 783.496C852.421 783.496 860.342 780.483 866.373 774.452L1120.45 520.373C1126.29 514.531 1129.51 506.764 1129.51 498.5C1129.51 490.237 1126.29 482.47 1120.45 476.628L866.373 222.549C860.531 216.707 852.764 213.488 844.501 213.488C836.237 213.488 828.47 216.707 822.628 222.549L568.549 476.628C562.707 482.47 559.488 490.237 559.488 498.5C559.488 506.764 562.707 514.531 568.549 520.373L822.628 774.452C828.659 780.483 836.58 783.496 844.5 783.496Z" fill="url(#paint42_linear_1363_1261)"/>
<path d="M844.499 219.826C852.334 219.826 860.165 222.809 866.132 228.771L1114.23 476.867C1120.01 482.644 1123.19 490.325 1123.19 498.499C1123.19 506.669 1120.01 514.354 1114.23 520.132L866.127 768.227C854.199 780.156 834.791 780.156 822.866 768.227L574.771 520.132C562.842 508.203 562.842 488.799 574.771 476.871L822.867 228.775C828.829 222.813 836.664 219.83 844.499 219.83L844.499 219.826ZM844.499 774.905C851.751 774.905 859.004 772.145 864.529 766.624L1112.62 518.524C1117.97 513.175 1120.92 506.06 1120.92 498.495C1120.92 490.93 1117.97 483.819 1112.62 478.465L864.529 230.37C853.483 219.324 835.515 219.328 824.474 230.37L576.378 478.465C565.337 489.511 565.337 507.479 576.378 518.52L824.474 766.616C829.994 772.136 837.247 774.897 844.503 774.897L844.499 774.905Z" fill="url(#paint43_linear_1363_1261)"/>
<path d="M844.499 228.404C851.975 228.404 859 231.314 864.285 236.599L1106.4 478.711C1117.31 489.62 1117.31 507.373 1106.4 518.286L864.285 760.402C859 765.687 851.975 768.598 844.499 768.598C837.024 768.598 829.999 765.687 824.714 760.402L582.602 518.29C577.317 513.005 574.407 505.976 574.407 498.505C574.407 491.03 577.317 484.005 582.602 478.72L824.714 236.608C829.999 231.323 837.029 228.412 844.499 228.412L844.499 228.404ZM1104.8 516.683C1114.82 506.658 1114.82 490.34 1104.8 480.314L862.686 238.202C857.83 233.346 851.37 230.671 844.504 230.671C837.633 230.671 831.178 233.346 826.322 238.202L584.209 480.314C579.353 485.171 576.679 491.63 576.679 498.496C576.679 505.367 579.353 511.822 584.209 516.679L826.322 758.791C831.178 763.647 837.637 766.322 844.504 766.322C851.37 766.322 857.83 763.647 862.686 758.791L1104.8 516.683Z" fill="url(#paint44_linear_1363_1261)"/>
</g>
</g>
</g>
</g>
<defs>
<linearGradient id="paint0_linear_1363_1261" x1="0" y1="150" x2="1080" y2="150" gradientUnits="userSpaceOnUse">
<stop stop-color="#CEECFE"/>
<stop offset="1" stop-color="#FDFEFF"/>
</linearGradient>
<linearGradient id="paint1_linear_1363_1261" x1="-203" y1="-198.496" x2="698.004" y2="-198.496" gradientUnits="userSpaceOnUse">
<stop stop-color="#1868AB"/>
<stop offset="0.2" stop-color="#2274C7"/>
<stop offset="0.32" stop-color="#2275C8" stop-opacity="0.99"/>
<stop offset="0.37" stop-color="#227BCF" stop-opacity="0.93"/>
<stop offset="0.4" stop-color="#2285DA" stop-opacity="0.84"/>
<stop offset="0.42" stop-color="#2294EB" stop-opacity="0.7"/>
<stop offset="0.44" stop-color="#23A0F8" stop-opacity="0.6"/>
<stop offset="0.7" stop-color="#23A0F8"/>
<stop offset="0.87" stop-color="#34D6FC"/>
<stop offset="1" stop-color="#34D6FC" stop-opacity="0.5"/>
</linearGradient>
<linearGradient id="paint2_linear_1363_1261" x1="-194.41" y1="-198.496" x2="689.411" y2="-198.495" gradientUnits="userSpaceOnUse">
<stop stop-color="#1868AB"/>
<stop offset="0.2" stop-color="#2274C7"/>
<stop offset="0.32" stop-color="#2275C8" stop-opacity="0.99"/>
<stop offset="0.37" stop-color="#227BCF" stop-opacity="0.93"/>
<stop offset="0.4" stop-color="#2285DA" stop-opacity="0.84"/>
<stop offset="0.42" stop-color="#2294EB" stop-opacity="0.7"/>
<stop offset="0.44" stop-color="#23A0F8" stop-opacity="0.6"/>
<stop offset="0.7" stop-color="#23A0F8"/>
<stop offset="0.87" stop-color="#34D6FC"/>
<stop offset="1" stop-color="#34D6FC" stop-opacity="0.5"/>
</linearGradient>
<linearGradient id="paint3_linear_1363_1261" x1="-185.816" y1="-198.495" x2="680.821" y2="-198.495" gradientUnits="userSpaceOnUse">
<stop stop-color="#1868AB"/>
<stop offset="0.2" stop-color="#2274C7"/>
<stop offset="0.32" stop-color="#2275C8" stop-opacity="0.99"/>
<stop offset="0.37" stop-color="#227BCF" stop-opacity="0.93"/>
<stop offset="0.4" stop-color="#2285DA" stop-opacity="0.84"/>
<stop offset="0.42" stop-color="#2294EB" stop-opacity="0.7"/>
<stop offset="0.44" stop-color="#23A0F8" stop-opacity="0.6"/>
<stop offset="0.7" stop-color="#23A0F8"/>
<stop offset="0.87" stop-color="#34D6FC"/>
<stop offset="1" stop-color="#34D6FC" stop-opacity="0.5"/>
</linearGradient>
<linearGradient id="paint4_linear_1363_1261" x1="-177.226" y1="-198.495" x2="672.232" y2="-198.495" gradientUnits="userSpaceOnUse">
<stop stop-color="#1868AB"/>
<stop offset="0.2" stop-color="#2274C7"/>
<stop offset="0.32" stop-color="#2275C8" stop-opacity="0.99"/>
<stop offset="0.37" stop-color="#227BCF" stop-opacity="0.93"/>
<stop offset="0.4" stop-color="#2285DA" stop-opacity="0.84"/>
<stop offset="0.42" stop-color="#2294EB" stop-opacity="0.7"/>
<stop offset="0.44" stop-color="#23A0F8" stop-opacity="0.6"/>
<stop offset="0.7" stop-color="#23A0F8"/>
<stop offset="0.87" stop-color="#34D6FC"/>
<stop offset="1" stop-color="#34D6FC" stop-opacity="0.5"/>
</linearGradient>
<linearGradient id="paint5_linear_1363_1261" x1="-168.638" y1="-198.495" x2="663.641" y2="-198.495" gradientUnits="userSpaceOnUse">
<stop stop-color="#1868AB"/>
<stop offset="0.2" stop-color="#2274C7"/>
<stop offset="0.32" stop-color="#2275C8" stop-opacity="0.99"/>
<stop offset="0.37" stop-color="#227BCF" stop-opacity="0.93"/>
<stop offset="0.4" stop-color="#2285DA" stop-opacity="0.84"/>
<stop offset="0.42" stop-color="#2294EB" stop-opacity="0.7"/>
<stop offset="0.44" stop-color="#23A0F8" stop-opacity="0.6"/>
<stop offset="0.7" stop-color="#23A0F8"/>
<stop offset="0.87" stop-color="#34D6FC"/>
<stop offset="1" stop-color="#34D6FC" stop-opacity="0.5"/>
</linearGradient>
<linearGradient id="paint6_linear_1363_1261" x1="-160.043" y1="-198.495" x2="655.048" y2="-198.495" gradientUnits="userSpaceOnUse">
<stop stop-color="#1868AB"/>
<stop offset="0.2" stop-color="#2274C7"/>
<stop offset="0.32" stop-color="#2275C8" stop-opacity="0.99"/>
<stop offset="0.37" stop-color="#227BCF" stop-opacity="0.93"/>
<stop offset="0.4" stop-color="#2285DA" stop-opacity="0.84"/>
<stop offset="0.42" stop-color="#2294EB" stop-opacity="0.7"/>
<stop offset="0.44" stop-color="#23A0F8" stop-opacity="0.6"/>
<stop offset="0.7" stop-color="#23A0F8"/>
<stop offset="0.87" stop-color="#34D6FC"/>
<stop offset="1" stop-color="#34D6FC" stop-opacity="0.5"/>
</linearGradient>
<linearGradient id="paint7_linear_1363_1261" x1="-151.455" y1="-198.495" x2="646.457" y2="-198.495" gradientUnits="userSpaceOnUse">
<stop stop-color="#1868AB"/>
<stop offset="0.2" stop-color="#2274C7"/>
<stop offset="0.32" stop-color="#2275C8" stop-opacity="0.99"/>
<stop offset="0.37" stop-color="#227BCF" stop-opacity="0.93"/>
<stop offset="0.4" stop-color="#2285DA" stop-opacity="0.84"/>
<stop offset="0.42" stop-color="#2294EB" stop-opacity="0.7"/>
<stop offset="0.44" stop-color="#23A0F8" stop-opacity="0.6"/>
<stop offset="0.7" stop-color="#23A0F8"/>
<stop offset="0.87" stop-color="#34D6FC"/>
<stop offset="1" stop-color="#34D6FC" stop-opacity="0.5"/>
</linearGradient>
<linearGradient id="paint8_linear_1363_1261" x1="-142.863" y1="-198.495" x2="637.869" y2="-198.495" gradientUnits="userSpaceOnUse">
<stop stop-color="#1868AB"/>
<stop offset="0.2" stop-color="#2274C7"/>
<stop offset="0.32" stop-color="#2275C8" stop-opacity="0.99"/>
<stop offset="0.37" stop-color="#227BCF" stop-opacity="0.93"/>
<stop offset="0.4" stop-color="#2285DA" stop-opacity="0.84"/>
<stop offset="0.42" stop-color="#2294EB" stop-opacity="0.7"/>
<stop offset="0.44" stop-color="#23A0F8" stop-opacity="0.6"/>
<stop offset="0.7" stop-color="#23A0F8"/>
<stop offset="0.87" stop-color="#34D6FC"/>
<stop offset="1" stop-color="#34D6FC" stop-opacity="0.5"/>
</linearGradient>
<linearGradient id="paint9_linear_1363_1261" x1="-134.273" y1="-198.497" x2="629.28" y2="-198.496" gradientUnits="userSpaceOnUse">
<stop stop-color="#1868AB"/>
<stop offset="0.2" stop-color="#2274C7"/>
<stop offset="0.32" stop-color="#2275C8" stop-opacity="0.99"/>
<stop offset="0.37" stop-color="#227BCF" stop-opacity="0.93"/>
<stop offset="0.4" stop-color="#2285DA" stop-opacity="0.84"/>
<stop offset="0.42" stop-color="#2294EB" stop-opacity="0.7"/>
<stop offset="0.44" stop-color="#23A0F8" stop-opacity="0.6"/>
<stop offset="0.7" stop-color="#23A0F8"/>
<stop offset="0.87" stop-color="#34D6FC"/>
<stop offset="1" stop-color="#34D6FC" stop-opacity="0.5"/>
</linearGradient>
<linearGradient id="paint10_linear_1363_1261" x1="-125.686" y1="-198.496" x2="620.684" y2="-198.496" gradientUnits="userSpaceOnUse">
<stop stop-color="#1868AB"/>
<stop offset="0.2" stop-color="#2274C7"/>
<stop offset="0.32" stop-color="#2275C8" stop-opacity="0.99"/>
<stop offset="0.37" stop-color="#227BCF" stop-opacity="0.93"/>
<stop offset="0.4" stop-color="#2285DA" stop-opacity="0.84"/>
<stop offset="0.42" stop-color="#2294EB" stop-opacity="0.7"/>
<stop offset="0.44" stop-color="#23A0F8" stop-opacity="0.6"/>
<stop offset="0.7" stop-color="#23A0F8"/>
<stop offset="0.87" stop-color="#34D6FC"/>
<stop offset="1" stop-color="#34D6FC" stop-opacity="0.5"/>
</linearGradient>
<linearGradient id="paint11_linear_1363_1261" x1="-117.092" y1="-198.496" x2="612.095" y2="-198.496" gradientUnits="userSpaceOnUse">
<stop stop-color="#1868AB"/>
<stop offset="0.2" stop-color="#2274C7"/>
<stop offset="0.32" stop-color="#2275C8" stop-opacity="0.99"/>
<stop offset="0.37" stop-color="#227BCF" stop-opacity="0.93"/>
<stop offset="0.4" stop-color="#2285DA" stop-opacity="0.84"/>
<stop offset="0.42" stop-color="#2294EB" stop-opacity="0.7"/>
<stop offset="0.44" stop-color="#23A0F8" stop-opacity="0.6"/>
<stop offset="0.7" stop-color="#23A0F8"/>
<stop offset="0.87" stop-color="#34D6FC"/>
<stop offset="1" stop-color="#34D6FC" stop-opacity="0.5"/>
</linearGradient>
<linearGradient id="paint12_linear_1363_1261" x1="-108.5" y1="-198.496" x2="603.507" y2="-198.496" gradientUnits="userSpaceOnUse">
<stop stop-color="#1868AB"/>
<stop offset="0.2" stop-color="#2274C7"/>
<stop offset="0.32" stop-color="#2275C8" stop-opacity="0.99"/>
<stop offset="0.37" stop-color="#227BCF" stop-opacity="0.93"/>
<stop offset="0.4" stop-color="#2285DA" stop-opacity="0.84"/>
<stop offset="0.42" stop-color="#2294EB" stop-opacity="0.7"/>
<stop offset="0.44" stop-color="#23A0F8" stop-opacity="0.6"/>
<stop offset="0.7" stop-color="#23A0F8"/>
<stop offset="0.87" stop-color="#34D6FC"/>
<stop offset="1" stop-color="#34D6FC" stop-opacity="0.5"/>
</linearGradient>
<linearGradient id="paint13_linear_1363_1261" x1="-99.9121" y1="-198.496" x2="594.916" y2="-198.496" gradientUnits="userSpaceOnUse">
<stop stop-color="#1868AB"/>
<stop offset="0.2" stop-color="#2274C7"/>
<stop offset="0.32" stop-color="#2275C8" stop-opacity="0.99"/>
<stop offset="0.37" stop-color="#227BCF" stop-opacity="0.93"/>
<stop offset="0.4" stop-color="#2285DA" stop-opacity="0.84"/>
<stop offset="0.42" stop-color="#2294EB" stop-opacity="0.7"/>
<stop offset="0.44" stop-color="#23A0F8" stop-opacity="0.6"/>
<stop offset="0.7" stop-color="#23A0F8"/>
<stop offset="0.87" stop-color="#34D6FC"/>
<stop offset="1" stop-color="#34D6FC" stop-opacity="0.5"/>
</linearGradient>
<linearGradient id="paint14_linear_1363_1261" x1="-91.3223" y1="-198.496" x2="586.322" y2="-198.496" gradientUnits="userSpaceOnUse">
<stop stop-color="#1868AB"/>
<stop offset="0.2" stop-color="#2274C7"/>
<stop offset="0.32" stop-color="#2275C8" stop-opacity="0.99"/>
<stop offset="0.37" stop-color="#227BCF" stop-opacity="0.93"/>
<stop offset="0.4" stop-color="#2285DA" stop-opacity="0.84"/>
<stop offset="0.42" stop-color="#2294EB" stop-opacity="0.7"/>
<stop offset="0.44" stop-color="#23A0F8" stop-opacity="0.6"/>
<stop offset="0.7" stop-color="#23A0F8"/>
<stop offset="0.87" stop-color="#34D6FC"/>
<stop offset="1" stop-color="#34D6FC" stop-opacity="0.5"/>
</linearGradient>
<linearGradient id="paint15_linear_1363_1261" x1="-82.7282" y1="-198.508" x2="577.711" y2="-198.508" gradientUnits="userSpaceOnUse">
<stop stop-color="#1868AB"/>
<stop offset="0.2" stop-color="#2274C7"/>
<stop offset="0.32" stop-color="#2275C8" stop-opacity="0.99"/>
<stop offset="0.37" stop-color="#227BCF" stop-opacity="0.93"/>
<stop offset="0.4" stop-color="#2285DA" stop-opacity="0.84"/>
<stop offset="0.42" stop-color="#2294EB" stop-opacity="0.7"/>
<stop offset="0.44" stop-color="#23A0F8" stop-opacity="0.6"/>
<stop offset="0.7" stop-color="#23A0F8"/>
<stop offset="0.87" stop-color="#34D6FC"/>
<stop offset="1" stop-color="#34D6FC" stop-opacity="0.5"/>
</linearGradient>
<linearGradient id="paint16_linear_1363_1261" x1="-74.1179" y1="-198.496" x2="569.142" y2="-198.496" gradientUnits="userSpaceOnUse">
<stop stop-color="#1868AB"/>
<stop offset="0.2" stop-color="#2274C7"/>
<stop offset="0.32" stop-color="#2275C8" stop-opacity="0.99"/>
<stop offset="0.37" stop-color="#227BCF" stop-opacity="0.93"/>
<stop offset="0.4" stop-color="#2285DA" stop-opacity="0.84"/>
<stop offset="0.42" stop-color="#2294EB" stop-opacity="0.7"/>
<stop offset="0.44" stop-color="#23A0F8" stop-opacity="0.6"/>
<stop offset="0.7" stop-color="#23A0F8"/>
<stop offset="0.87" stop-color="#34D6FC"/>
<stop offset="1" stop-color="#34D6FC" stop-opacity="0.5"/>
</linearGradient>
<linearGradient id="paint17_linear_1363_1261" x1="-65.527" y1="-198.495" x2="560.533" y2="-198.495" gradientUnits="userSpaceOnUse">
<stop stop-color="#1868AB"/>
<stop offset="0.2" stop-color="#2274C7"/>
<stop offset="0.32" stop-color="#2275C8" stop-opacity="0.99"/>
<stop offset="0.37" stop-color="#227BCF" stop-opacity="0.93"/>
<stop offset="0.4" stop-color="#2285DA" stop-opacity="0.84"/>
<stop offset="0.42" stop-color="#2294EB" stop-opacity="0.7"/>
<stop offset="0.44" stop-color="#23A0F8" stop-opacity="0.6"/>
<stop offset="0.7" stop-color="#23A0F8"/>
<stop offset="0.87" stop-color="#34D6FC"/>
<stop offset="1" stop-color="#34D6FC" stop-opacity="0.5"/>
</linearGradient>
<linearGradient id="paint18_linear_1363_1261" x1="-56.959" y1="-198.486" x2="551.96" y2="-198.486" gradientUnits="userSpaceOnUse">
<stop stop-color="#1868AB"/>
<stop offset="0.2" stop-color="#2274C7"/>
<stop offset="0.32" stop-color="#2275C8" stop-opacity="0.99"/>
<stop offset="0.37" stop-color="#227BCF" stop-opacity="0.93"/>
<stop offset="0.4" stop-color="#2285DA" stop-opacity="0.84"/>
<stop offset="0.42" stop-color="#2294EB" stop-opacity="0.7"/>
<stop offset="0.44" stop-color="#23A0F8" stop-opacity="0.6"/>
<stop offset="0.7" stop-color="#23A0F8"/>
<stop offset="0.87" stop-color="#34D6FC"/>
<stop offset="1" stop-color="#34D6FC" stop-opacity="0.5"/>
</linearGradient>
<linearGradient id="paint19_linear_1363_1261" x1="-48.3649" y1="-198.496" x2="543.371" y2="-198.495" gradientUnits="userSpaceOnUse">
<stop stop-color="#1868AB"/>
<stop offset="0.2" stop-color="#2274C7"/>
<stop offset="0.32" stop-color="#2275C8" stop-opacity="0.99"/>
<stop offset="0.37" stop-color="#227BCF" stop-opacity="0.93"/>
<stop offset="0.4" stop-color="#2285DA" stop-opacity="0.84"/>
<stop offset="0.42" stop-color="#2294EB" stop-opacity="0.7"/>
<stop offset="0.44" stop-color="#23A0F8" stop-opacity="0.6"/>
<stop offset="0.7" stop-color="#23A0F8"/>
<stop offset="0.87" stop-color="#34D6FC"/>
<stop offset="1" stop-color="#34D6FC" stop-opacity="0.5"/>
</linearGradient>
<linearGradient id="paint20_linear_1363_1261" x1="-39.7594" y1="-198.496" x2="534.763" y2="-198.496" gradientUnits="userSpaceOnUse">
<stop stop-color="#1868AB"/>
<stop offset="0.2" stop-color="#2274C7"/>
<stop offset="0.32" stop-color="#2275C8" stop-opacity="0.99"/>
<stop offset="0.37" stop-color="#227BCF" stop-opacity="0.93"/>
<stop offset="0.4" stop-color="#2285DA" stop-opacity="0.84"/>
<stop offset="0.42" stop-color="#2294EB" stop-opacity="0.7"/>
<stop offset="0.44" stop-color="#23A0F8" stop-opacity="0.6"/>
<stop offset="0.7" stop-color="#23A0F8"/>
<stop offset="0.87" stop-color="#34D6FC"/>
<stop offset="1" stop-color="#34D6FC" stop-opacity="0.5"/>
</linearGradient>
<linearGradient id="paint21_linear_1363_1261" x1="-31.1856" y1="-198.495" x2="526.174" y2="-198.495" gradientUnits="userSpaceOnUse">
<stop stop-color="#1868AB"/>
<stop offset="0.2" stop-color="#2274C7"/>
<stop offset="0.32" stop-color="#2275C8" stop-opacity="0.99"/>
<stop offset="0.37" stop-color="#227BCF" stop-opacity="0.93"/>
<stop offset="0.4" stop-color="#2285DA" stop-opacity="0.84"/>
<stop offset="0.42" stop-color="#2294EB" stop-opacity="0.7"/>
<stop offset="0.44" stop-color="#23A0F8" stop-opacity="0.6"/>
<stop offset="0.7" stop-color="#23A0F8"/>
<stop offset="0.87" stop-color="#34D6FC"/>
<stop offset="1" stop-color="#34D6FC" stop-opacity="0.5"/>
</linearGradient>
<linearGradient id="paint22_linear_1363_1261" x1="-22.5792" y1="-198.497" x2="517.597" y2="-198.496" gradientUnits="userSpaceOnUse">
<stop stop-color="#1868AB"/>
<stop offset="0.2" stop-color="#2274C7"/>
<stop offset="0.32" stop-color="#2275C8" stop-opacity="0.99"/>
<stop offset="0.37" stop-color="#227BCF" stop-opacity="0.93"/>
<stop offset="0.4" stop-color="#2285DA" stop-opacity="0.84"/>
<stop offset="0.42" stop-color="#2294EB" stop-opacity="0.7"/>
<stop offset="0.44" stop-color="#23A0F8" stop-opacity="0.6"/>
<stop offset="0.7" stop-color="#23A0F8"/>
<stop offset="0.87" stop-color="#34D6FC"/>
<stop offset="1" stop-color="#34D6FC" stop-opacity="0.5"/>
</linearGradient>
<linearGradient id="paint23_linear_1363_1261" x1="1295" y1="498.496" x2="393.996" y2="498.496" gradientUnits="userSpaceOnUse">
<stop stop-color="#1868AB"/>
<stop offset="0.2" stop-color="#2274C7"/>
<stop offset="0.32" stop-color="#2275C8" stop-opacity="0.99"/>
<stop offset="0.37" stop-color="#227BCF" stop-opacity="0.93"/>
<stop offset="0.4" stop-color="#2285DA" stop-opacity="0.84"/>
<stop offset="0.42" stop-color="#2294EB" stop-opacity="0.7"/>
<stop offset="0.44" stop-color="#23A0F8" stop-opacity="0.6"/>
<stop offset="0.7" stop-color="#23A0F8"/>
<stop offset="0.87" stop-color="#34D6FC"/>
<stop offset="1" stop-color="#34D6FC" stop-opacity="0.5"/>
</linearGradient>
<linearGradient id="paint24_linear_1363_1261" x1="1286.41" y1="498.496" x2="402.589" y2="498.495" gradientUnits="userSpaceOnUse">
<stop stop-color="#1868AB"/>
<stop offset="0.2" stop-color="#2274C7"/>
<stop offset="0.32" stop-color="#2275C8" stop-opacity="0.99"/>
<stop offset="0.37" stop-color="#227BCF" stop-opacity="0.93"/>
<stop offset="0.4" stop-color="#2285DA" stop-opacity="0.84"/>
<stop offset="0.42" stop-color="#2294EB" stop-opacity="0.7"/>
<stop offset="0.44" stop-color="#23A0F8" stop-opacity="0.6"/>
<stop offset="0.7" stop-color="#23A0F8"/>
<stop offset="0.87" stop-color="#34D6FC"/>
<stop offset="1" stop-color="#34D6FC" stop-opacity="0.5"/>
</linearGradient>
<linearGradient id="paint25_linear_1363_1261" x1="1277.82" y1="498.495" x2="411.179" y2="498.495" gradientUnits="userSpaceOnUse">
<stop stop-color="#1868AB"/>
<stop offset="0.2" stop-color="#2274C7"/>
<stop offset="0.32" stop-color="#2275C8" stop-opacity="0.99"/>
<stop offset="0.37" stop-color="#227BCF" stop-opacity="0.93"/>
<stop offset="0.4" stop-color="#2285DA" stop-opacity="0.84"/>
<stop offset="0.42" stop-color="#2294EB" stop-opacity="0.7"/>
<stop offset="0.44" stop-color="#23A0F8" stop-opacity="0.6"/>
<stop offset="0.7" stop-color="#23A0F8"/>
<stop offset="0.87" stop-color="#34D6FC"/>
<stop offset="1" stop-color="#34D6FC" stop-opacity="0.5"/>
</linearGradient>
<linearGradient id="paint26_linear_1363_1261" x1="1269.23" y1="498.495" x2="419.768" y2="498.495" gradientUnits="userSpaceOnUse">
<stop stop-color="#1868AB"/>
<stop offset="0.2" stop-color="#2274C7"/>
<stop offset="0.32" stop-color="#2275C8" stop-opacity="0.99"/>
<stop offset="0.37" stop-color="#227BCF" stop-opacity="0.93"/>
<stop offset="0.4" stop-color="#2285DA" stop-opacity="0.84"/>
<stop offset="0.42" stop-color="#2294EB" stop-opacity="0.7"/>
<stop offset="0.44" stop-color="#23A0F8" stop-opacity="0.6"/>
<stop offset="0.7" stop-color="#23A0F8"/>
<stop offset="0.87" stop-color="#34D6FC"/>
<stop offset="1" stop-color="#34D6FC" stop-opacity="0.5"/>
</linearGradient>
<linearGradient id="paint27_linear_1363_1261" x1="1260.64" y1="498.495" x2="428.359" y2="498.495" gradientUnits="userSpaceOnUse">
<stop stop-color="#1868AB"/>
<stop offset="0.2" stop-color="#2274C7"/>
<stop offset="0.32" stop-color="#2275C8" stop-opacity="0.99"/>
<stop offset="0.37" stop-color="#227BCF" stop-opacity="0.93"/>
<stop offset="0.4" stop-color="#2285DA" stop-opacity="0.84"/>
<stop offset="0.42" stop-color="#2294EB" stop-opacity="0.7"/>
<stop offset="0.44" stop-color="#23A0F8" stop-opacity="0.6"/>
<stop offset="0.7" stop-color="#23A0F8"/>
<stop offset="0.87" stop-color="#34D6FC"/>
<stop offset="1" stop-color="#34D6FC" stop-opacity="0.5"/>
</linearGradient>
<linearGradient id="paint28_linear_1363_1261" x1="1252.04" y1="498.495" x2="436.952" y2="498.495" gradientUnits="userSpaceOnUse">
<stop stop-color="#1868AB"/>
<stop offset="0.2" stop-color="#2274C7"/>
<stop offset="0.32" stop-color="#2275C8" stop-opacity="0.99"/>
<stop offset="0.37" stop-color="#227BCF" stop-opacity="0.93"/>
<stop offset="0.4" stop-color="#2285DA" stop-opacity="0.84"/>
<stop offset="0.42" stop-color="#2294EB" stop-opacity="0.7"/>
<stop offset="0.44" stop-color="#23A0F8" stop-opacity="0.6"/>
<stop offset="0.7" stop-color="#23A0F8"/>
<stop offset="0.87" stop-color="#34D6FC"/>
<stop offset="1" stop-color="#34D6FC" stop-opacity="0.5"/>
</linearGradient>
<linearGradient id="paint29_linear_1363_1261" x1="1243.46" y1="498.495" x2="445.543" y2="498.495" gradientUnits="userSpaceOnUse">
<stop stop-color="#1868AB"/>
<stop offset="0.2" stop-color="#2274C7"/>
<stop offset="0.32" stop-color="#2275C8" stop-opacity="0.99"/>
<stop offset="0.37" stop-color="#227BCF" stop-opacity="0.93"/>
<stop offset="0.4" stop-color="#2285DA" stop-opacity="0.84"/>
<stop offset="0.42" stop-color="#2294EB" stop-opacity="0.7"/>
<stop offset="0.44" stop-color="#23A0F8" stop-opacity="0.6"/>
<stop offset="0.7" stop-color="#23A0F8"/>
<stop offset="0.87" stop-color="#34D6FC"/>
<stop offset="1" stop-color="#34D6FC" stop-opacity="0.5"/>
</linearGradient>
<linearGradient id="paint30_linear_1363_1261" x1="1234.86" y1="498.495" x2="454.131" y2="498.495" gradientUnits="userSpaceOnUse">
<stop stop-color="#1868AB"/>
<stop offset="0.2" stop-color="#2274C7"/>
<stop offset="0.32" stop-color="#2275C8" stop-opacity="0.99"/>
<stop offset="0.37" stop-color="#227BCF" stop-opacity="0.93"/>
<stop offset="0.4" stop-color="#2285DA" stop-opacity="0.84"/>
<stop offset="0.42" stop-color="#2294EB" stop-opacity="0.7"/>
<stop offset="0.44" stop-color="#23A0F8" stop-opacity="0.6"/>
<stop offset="0.7" stop-color="#23A0F8"/>
<stop offset="0.87" stop-color="#34D6FC"/>
<stop offset="1" stop-color="#34D6FC" stop-opacity="0.5"/>
</linearGradient>
<linearGradient id="paint31_linear_1363_1261" x1="1226.27" y1="498.497" x2="462.72" y2="498.496" gradientUnits="userSpaceOnUse">
<stop stop-color="#1868AB"/>
<stop offset="0.2" stop-color="#2274C7"/>
<stop offset="0.32" stop-color="#2275C8" stop-opacity="0.99"/>
<stop offset="0.37" stop-color="#227BCF" stop-opacity="0.93"/>
<stop offset="0.4" stop-color="#2285DA" stop-opacity="0.84"/>
<stop offset="0.42" stop-color="#2294EB" stop-opacity="0.7"/>
<stop offset="0.44" stop-color="#23A0F8" stop-opacity="0.6"/>
<stop offset="0.7" stop-color="#23A0F8"/>
<stop offset="0.87" stop-color="#34D6FC"/>
<stop offset="1" stop-color="#34D6FC" stop-opacity="0.5"/>
</linearGradient>
<linearGradient id="paint32_linear_1363_1261" x1="1217.69" y1="498.496" x2="471.316" y2="498.496" gradientUnits="userSpaceOnUse">
<stop stop-color="#1868AB"/>
<stop offset="0.2" stop-color="#2274C7"/>
<stop offset="0.32" stop-color="#2275C8" stop-opacity="0.99"/>
<stop offset="0.37" stop-color="#227BCF" stop-opacity="0.93"/>
<stop offset="0.4" stop-color="#2285DA" stop-opacity="0.84"/>
<stop offset="0.42" stop-color="#2294EB" stop-opacity="0.7"/>
<stop offset="0.44" stop-color="#23A0F8" stop-opacity="0.6"/>
<stop offset="0.7" stop-color="#23A0F8"/>
<stop offset="0.87" stop-color="#34D6FC"/>
<stop offset="1" stop-color="#34D6FC" stop-opacity="0.5"/>
</linearGradient>
<linearGradient id="paint33_linear_1363_1261" x1="1209.09" y1="498.496" x2="479.905" y2="498.496" gradientUnits="userSpaceOnUse">
<stop stop-color="#1868AB"/>
<stop offset="0.2" stop-color="#2274C7"/>
<stop offset="0.32" stop-color="#2275C8" stop-opacity="0.99"/>
<stop offset="0.37" stop-color="#227BCF" stop-opacity="0.93"/>
<stop offset="0.4" stop-color="#2285DA" stop-opacity="0.84"/>
<stop offset="0.42" stop-color="#2294EB" stop-opacity="0.7"/>
<stop offset="0.44" stop-color="#23A0F8" stop-opacity="0.6"/>
<stop offset="0.7" stop-color="#23A0F8"/>
<stop offset="0.87" stop-color="#34D6FC"/>
<stop offset="1" stop-color="#34D6FC" stop-opacity="0.5"/>
</linearGradient>
<linearGradient id="paint34_linear_1363_1261" x1="1200.5" y1="498.496" x2="488.493" y2="498.496" gradientUnits="userSpaceOnUse">
<stop stop-color="#1868AB"/>
<stop offset="0.2" stop-color="#2274C7"/>
<stop offset="0.32" stop-color="#2275C8" stop-opacity="0.99"/>
<stop offset="0.37" stop-color="#227BCF" stop-opacity="0.93"/>
<stop offset="0.4" stop-color="#2285DA" stop-opacity="0.84"/>
<stop offset="0.42" stop-color="#2294EB" stop-opacity="0.7"/>
<stop offset="0.44" stop-color="#23A0F8" stop-opacity="0.6"/>
<stop offset="0.7" stop-color="#23A0F8"/>
<stop offset="0.87" stop-color="#34D6FC"/>
<stop offset="1" stop-color="#34D6FC" stop-opacity="0.5"/>
</linearGradient>
<linearGradient id="paint35_linear_1363_1261" x1="1191.91" y1="498.496" x2="497.084" y2="498.496" gradientUnits="userSpaceOnUse">
<stop stop-color="#1868AB"/>
<stop offset="0.2" stop-color="#2274C7"/>
<stop offset="0.32" stop-color="#2275C8" stop-opacity="0.99"/>
<stop offset="0.37" stop-color="#227BCF" stop-opacity="0.93"/>
<stop offset="0.4" stop-color="#2285DA" stop-opacity="0.84"/>
<stop offset="0.42" stop-color="#2294EB" stop-opacity="0.7"/>
<stop offset="0.44" stop-color="#23A0F8" stop-opacity="0.6"/>
<stop offset="0.7" stop-color="#23A0F8"/>
<stop offset="0.87" stop-color="#34D6FC"/>
<stop offset="1" stop-color="#34D6FC" stop-opacity="0.5"/>
</linearGradient>
<linearGradient id="paint36_linear_1363_1261" x1="1183.32" y1="498.496" x2="505.678" y2="498.496" gradientUnits="userSpaceOnUse">
<stop stop-color="#1868AB"/>
<stop offset="0.2" stop-color="#2274C7"/>
<stop offset="0.32" stop-color="#2275C8" stop-opacity="0.99"/>
<stop offset="0.37" stop-color="#227BCF" stop-opacity="0.93"/>
<stop offset="0.4" stop-color="#2285DA" stop-opacity="0.84"/>
<stop offset="0.42" stop-color="#2294EB" stop-opacity="0.7"/>
<stop offset="0.44" stop-color="#23A0F8" stop-opacity="0.6"/>
<stop offset="0.7" stop-color="#23A0F8"/>
<stop offset="0.87" stop-color="#34D6FC"/>
<stop offset="1" stop-color="#34D6FC" stop-opacity="0.5"/>
</linearGradient>
<linearGradient id="paint37_linear_1363_1261" x1="1174.73" y1="498.508" x2="514.289" y2="498.508" gradientUnits="userSpaceOnUse">
<stop stop-color="#1868AB"/>
<stop offset="0.2" stop-color="#2274C7"/>
<stop offset="0.32" stop-color="#2275C8" stop-opacity="0.99"/>
<stop offset="0.37" stop-color="#227BCF" stop-opacity="0.93"/>
<stop offset="0.4" stop-color="#2285DA" stop-opacity="0.84"/>
<stop offset="0.42" stop-color="#2294EB" stop-opacity="0.7"/>
<stop offset="0.44" stop-color="#23A0F8" stop-opacity="0.6"/>
<stop offset="0.7" stop-color="#23A0F8"/>
<stop offset="0.87" stop-color="#34D6FC"/>
<stop offset="1" stop-color="#34D6FC" stop-opacity="0.5"/>
</linearGradient>
<linearGradient id="paint38_linear_1363_1261" x1="1166.12" y1="498.496" x2="522.858" y2="498.496" gradientUnits="userSpaceOnUse">
<stop stop-color="#1868AB"/>
<stop offset="0.2" stop-color="#2274C7"/>
<stop offset="0.32" stop-color="#2275C8" stop-opacity="0.99"/>
<stop offset="0.37" stop-color="#227BCF" stop-opacity="0.93"/>
<stop offset="0.4" stop-color="#2285DA" stop-opacity="0.84"/>
<stop offset="0.42" stop-color="#2294EB" stop-opacity="0.7"/>
<stop offset="0.44" stop-color="#23A0F8" stop-opacity="0.6"/>
<stop offset="0.7" stop-color="#23A0F8"/>
<stop offset="0.87" stop-color="#34D6FC"/>
<stop offset="1" stop-color="#34D6FC" stop-opacity="0.5"/>
</linearGradient>
<linearGradient id="paint39_linear_1363_1261" x1="1157.53" y1="498.495" x2="531.467" y2="498.495" gradientUnits="userSpaceOnUse">
<stop stop-color="#1868AB"/>
<stop offset="0.2" stop-color="#2274C7"/>
<stop offset="0.32" stop-color="#2275C8" stop-opacity="0.99"/>
<stop offset="0.37" stop-color="#227BCF" stop-opacity="0.93"/>
<stop offset="0.4" stop-color="#2285DA" stop-opacity="0.84"/>
<stop offset="0.42" stop-color="#2294EB" stop-opacity="0.7"/>
<stop offset="0.44" stop-color="#23A0F8" stop-opacity="0.6"/>
<stop offset="0.7" stop-color="#23A0F8"/>
<stop offset="0.87" stop-color="#34D6FC"/>
<stop offset="1" stop-color="#34D6FC" stop-opacity="0.5"/>
</linearGradient>
<linearGradient id="paint40_linear_1363_1261" x1="1148.96" y1="498.486" x2="540.04" y2="498.486" gradientUnits="userSpaceOnUse">
<stop stop-color="#1868AB"/>
<stop offset="0.2" stop-color="#2274C7"/>
<stop offset="0.32" stop-color="#2275C8" stop-opacity="0.99"/>
<stop offset="0.37" stop-color="#227BCF" stop-opacity="0.93"/>
<stop offset="0.4" stop-color="#2285DA" stop-opacity="0.84"/>
<stop offset="0.42" stop-color="#2294EB" stop-opacity="0.7"/>
<stop offset="0.44" stop-color="#23A0F8" stop-opacity="0.6"/>
<stop offset="0.7" stop-color="#23A0F8"/>
<stop offset="0.87" stop-color="#34D6FC"/>
<stop offset="1" stop-color="#34D6FC" stop-opacity="0.5"/>
</linearGradient>
<linearGradient id="paint41_linear_1363_1261" x1="1140.36" y1="498.496" x2="548.629" y2="498.495" gradientUnits="userSpaceOnUse">
<stop stop-color="#1868AB"/>
<stop offset="0.2" stop-color="#2274C7"/>
<stop offset="0.32" stop-color="#2275C8" stop-opacity="0.99"/>
<stop offset="0.37" stop-color="#227BCF" stop-opacity="0.93"/>
<stop offset="0.4" stop-color="#2285DA" stop-opacity="0.84"/>
<stop offset="0.42" stop-color="#2294EB" stop-opacity="0.7"/>
<stop offset="0.44" stop-color="#23A0F8" stop-opacity="0.6"/>
<stop offset="0.7" stop-color="#23A0F8"/>
<stop offset="0.87" stop-color="#34D6FC"/>
<stop offset="1" stop-color="#34D6FC" stop-opacity="0.5"/>
</linearGradient>
<linearGradient id="paint42_linear_1363_1261" x1="1131.76" y1="498.496" x2="557.237" y2="498.496" gradientUnits="userSpaceOnUse">
<stop stop-color="#1868AB"/>
<stop offset="0.2" stop-color="#2274C7"/>
<stop offset="0.32" stop-color="#2275C8" stop-opacity="0.99"/>
<stop offset="0.37" stop-color="#227BCF" stop-opacity="0.93"/>
<stop offset="0.4" stop-color="#2285DA" stop-opacity="0.84"/>
<stop offset="0.42" stop-color="#2294EB" stop-opacity="0.7"/>
<stop offset="0.44" stop-color="#23A0F8" stop-opacity="0.6"/>
<stop offset="0.7" stop-color="#23A0F8"/>
<stop offset="0.87" stop-color="#34D6FC"/>
<stop offset="1" stop-color="#34D6FC" stop-opacity="0.5"/>
</linearGradient>
<linearGradient id="paint43_linear_1363_1261" x1="1123.19" y1="498.495" x2="565.826" y2="498.495" gradientUnits="userSpaceOnUse">
<stop stop-color="#1868AB"/>
<stop offset="0.2" stop-color="#2274C7"/>
<stop offset="0.32" stop-color="#2275C8" stop-opacity="0.99"/>
<stop offset="0.37" stop-color="#227BCF" stop-opacity="0.93"/>
<stop offset="0.4" stop-color="#2285DA" stop-opacity="0.84"/>
<stop offset="0.42" stop-color="#2294EB" stop-opacity="0.7"/>
<stop offset="0.44" stop-color="#23A0F8" stop-opacity="0.6"/>
<stop offset="0.7" stop-color="#23A0F8"/>
<stop offset="0.87" stop-color="#34D6FC"/>
<stop offset="1" stop-color="#34D6FC" stop-opacity="0.5"/>
</linearGradient>
<linearGradient id="paint44_linear_1363_1261" x1="1114.58" y1="498.497" x2="574.403" y2="498.496" gradientUnits="userSpaceOnUse">
<stop stop-color="#1868AB"/>
<stop offset="0.2" stop-color="#2274C7"/>
<stop offset="0.32" stop-color="#2275C8" stop-opacity="0.99"/>
<stop offset="0.37" stop-color="#227BCF" stop-opacity="0.93"/>
<stop offset="0.4" stop-color="#2285DA" stop-opacity="0.84"/>
<stop offset="0.42" stop-color="#2294EB" stop-opacity="0.7"/>
<stop offset="0.44" stop-color="#23A0F8" stop-opacity="0.6"/>
<stop offset="0.7" stop-color="#23A0F8"/>
<stop offset="0.87" stop-color="#34D6FC"/>
<stop offset="1" stop-color="#34D6FC" stop-opacity="0.5"/>
</linearGradient>
<clipPath id="clip0_1363_1261">
<rect width="1080" height="300" fill="white"/>
</clipPath>
</defs>
</svg>
